<svg xmlns="http://www.w3.org/2000/svg" xmlns:xlink="http://www.w3.org/1999/xlink" width="1080" zoomAndPan="magnify" viewBox="0 0 810 809.999993" height="1080" preserveAspectRatio="xMidYMid meet" version="1.0"><defs><clipPath id="e41519a9f8"><path d="M 0 118 L 810 118 L 810 691.707031 L 0 691.707031 Z M 0 118 " clip-rule="nonzero"/></clipPath></defs><rect x="-81" width="972" fill="#ffffff" y="-80.999999" height="971.999992" fill-opacity="1"/><rect x="-81" width="972" fill="#ffffff" y="-80.999999" height="971.999992" fill-opacity="1"/><rect x="-81" width="972" fill="#fff4de" y="-80.999999" height="971.999992" fill-opacity="1"/><g clip-path="url(#e41519a9f8)"><path fill="#d06150" d="M 675 624.082031 C 712.292969 624.082031 742.164062 593.890625 742.164062 556.621094 L 742.5 185.582031 C 742.5 148.308594 712.292969 118.121094 675 118.121094 L 135 118.121094 C 97.707031 118.121094 67.5 148.308594 67.5 185.582031 L 67.5 556.621094 C 67.5 593.890625 97.707031 624.082031 135 624.082031 L 0 624.082031 C 0 661.351562 30.207031 691.542969 67.5 691.542969 L 742.5 691.542969 C 779.792969 691.542969 810 661.351562 810 624.082031 Z M 135 185.582031 L 675 185.582031 L 675 556.621094 L 135 556.621094 Z M 405 657.8125 C 386.4375 657.8125 371.25 642.632812 371.25 624.082031 C 371.25 605.527344 386.4375 590.351562 405 590.351562 C 423.5625 590.351562 438.75 605.527344 438.75 624.082031 C 438.75 642.632812 423.5625 657.8125 405 657.8125 Z M 405 657.8125 " fill-opacity="1" fill-rule="nonzero"/></g></svg>