<svg xmlns="http://www.w3.org/2000/svg" xmlns:xlink="http://www.w3.org/1999/xlink" width="1080" zoomAndPan="magnify" viewBox="0 0 810 809.999993" height="1080" preserveAspectRatio="xMidYMid meet" version="1.0"><defs><clipPath id="32b40290a0"><path d="M 14.351562 14.351562 L 795.851562 14.351562 L 795.851562 795.851562 L 14.351562 795.851562 Z M 14.351562 14.351562 " clip-rule="nonzero"/></clipPath></defs><rect x="-81" width="972" fill="#ffffff" y="-80.999999" height="971.999992" fill-opacity="1"/><rect x="-81" width="972" fill="#ffffff" y="-80.999999" height="971.999992" fill-opacity="1"/><rect x="-81" width="972" fill="#fff4de" y="-80.999999" height="971.999992" fill-opacity="1"/><path fill="#d06150" d="M 341.445312 64.769531 L 467.496094 64.769531 L 467.496094 89.980469 L 341.445312 89.980469 Z M 341.445312 64.769531 " fill-opacity="1" fill-rule="nonzero"/><g clip-path="url(#32b40290a0)"><path fill="#d06150" d="M 643.960938 153.003906 L 643.960938 102.585938 C 643.960938 101.140625 643.925781 99.695312 643.855469 98.253906 C 643.785156 96.8125 643.679688 95.371094 643.539062 93.9375 C 643.394531 92.5 643.21875 91.066406 643.007812 89.636719 C 642.796875 88.210938 642.546875 86.785156 642.265625 85.371094 C 641.984375 83.953125 641.667969 82.546875 641.316406 81.144531 C 640.96875 79.746094 640.582031 78.351562 640.164062 76.972656 C 639.742188 75.589844 639.289062 74.21875 638.804688 72.859375 C 638.316406 71.5 637.796875 70.152344 637.246094 68.820312 C 636.691406 67.484375 636.109375 66.164062 635.492188 64.859375 C 634.875 63.554688 634.222656 62.265625 633.542969 60.992188 C 632.863281 59.71875 632.152344 58.460938 631.410156 57.222656 C 630.667969 55.984375 629.894531 54.765625 629.09375 53.5625 C 628.289062 52.363281 627.457031 51.183594 626.597656 50.023438 C 625.738281 48.863281 624.851562 47.726562 623.933594 46.609375 C 623.019531 45.492188 622.074219 44.398438 621.105469 43.328125 C 620.136719 42.261719 619.140625 41.214844 618.117188 40.195312 C 617.097656 39.171875 616.050781 38.175781 614.980469 37.207031 C 613.914062 36.238281 612.820312 35.292969 611.703125 34.378906 C 610.585938 33.460938 609.449219 32.574219 608.289062 31.714844 C 607.128906 30.855469 605.949219 30.023438 604.75 29.21875 C 603.546875 28.417969 602.328125 27.644531 601.089844 26.902344 C 599.851562 26.160156 598.59375 25.449219 597.320312 24.769531 C 596.046875 24.089844 594.757812 23.4375 593.453125 22.820312 C 592.148438 22.203125 590.828125 21.621094 589.492188 21.066406 C 588.160156 20.515625 586.8125 19.996094 585.453125 19.507812 C 584.09375 19.023438 582.722656 18.570312 581.339844 18.148438 C 579.960938 17.730469 578.566406 17.34375 577.167969 16.996094 C 575.765625 16.644531 574.359375 16.328125 572.941406 16.046875 C 571.527344 15.765625 570.101562 15.515625 568.675781 15.304688 C 567.246094 15.09375 565.8125 14.917969 564.375 14.773438 C 562.941406 14.632812 561.5 14.527344 560.058594 14.457031 C 558.617188 14.386719 557.171875 14.351562 555.726562 14.351562 L 253.210938 14.351562 C 251.769531 14.351562 250.324219 14.386719 248.882812 14.457031 C 247.441406 14.527344 246 14.632812 244.5625 14.773438 C 243.125 14.917969 241.695312 15.09375 240.265625 15.304688 C 238.835938 15.515625 237.414062 15.765625 236 16.046875 C 234.582031 16.328125 233.171875 16.644531 231.773438 16.996094 C 230.371094 17.34375 228.980469 17.730469 227.597656 18.148438 C 226.21875 18.570312 224.847656 19.023438 223.488281 19.507812 C 222.128906 19.996094 220.78125 20.515625 219.445312 21.066406 C 218.113281 21.621094 216.792969 22.203125 215.488281 22.820312 C 214.183594 23.4375 212.890625 24.089844 211.617188 24.769531 C 210.34375 25.449219 209.089844 26.160156 207.851562 26.902344 C 206.613281 27.644531 205.394531 28.417969 204.191406 29.21875 C 202.992188 30.023438 201.8125 30.855469 200.652344 31.714844 C 199.492188 32.574219 198.351562 33.460938 197.238281 34.378906 C 196.121094 35.292969 195.027344 36.238281 193.957031 37.207031 C 192.886719 38.175781 191.84375 39.171875 190.820312 40.195312 C 189.800781 41.214844 188.804688 42.261719 187.835938 43.328125 C 186.867188 44.398438 185.921875 45.492188 185.007812 46.609375 C 184.089844 47.726562 183.203125 48.863281 182.34375 50.023438 C 181.480469 51.183594 180.652344 52.363281 179.847656 53.5625 C 179.046875 54.765625 178.273438 55.984375 177.53125 57.222656 C 176.789062 58.460938 176.078125 59.71875 175.398438 60.992188 C 174.714844 62.265625 174.066406 63.554688 173.449219 64.859375 C 172.832031 66.164062 172.246094 67.484375 171.695312 68.820312 C 171.140625 70.152344 170.621094 71.5 170.136719 72.859375 C 169.648438 74.21875 169.195312 75.589844 168.777344 76.972656 C 168.359375 78.351562 167.972656 79.746094 167.621094 81.144531 C 167.273438 82.546875 166.957031 83.953125 166.671875 85.371094 C 166.390625 86.785156 166.144531 88.210938 165.933594 89.636719 C 165.722656 91.066406 165.542969 92.5 165.402344 93.9375 C 165.261719 95.371094 165.15625 96.8125 165.085938 98.253906 C 165.011719 99.695312 164.976562 101.140625 164.976562 102.585938 L 164.976562 342.078125 C 162.503906 342.078125 160.027344 342.136719 157.554688 342.257812 C 155.082031 342.378906 152.617188 342.5625 150.152344 342.804688 C 147.6875 343.046875 145.234375 343.351562 142.785156 343.714844 C 140.335938 344.078125 137.898438 344.5 135.46875 344.984375 C 133.042969 345.464844 130.625 346.007812 128.226562 346.609375 C 125.824219 347.210938 123.4375 347.871094 121.070312 348.589844 C 118.703125 349.308594 116.351562 350.085938 114.019531 350.917969 C 111.691406 351.753906 109.382812 352.644531 107.09375 353.589844 C 104.808594 354.539062 102.542969 355.539062 100.308594 356.597656 C 98.070312 357.65625 95.859375 358.769531 93.675781 359.9375 C 91.492188 361.101562 89.339844 362.324219 87.214844 363.597656 C 85.09375 364.867188 83.003906 366.191406 80.945312 367.566406 C 78.886719 368.941406 76.863281 370.367188 74.875 371.84375 C 72.886719 373.316406 70.933594 374.839844 69.019531 376.410156 C 67.109375 377.980469 65.234375 379.597656 63.398438 381.257812 C 61.566406 382.921875 59.773438 384.628906 58.023438 386.378906 C 56.273438 388.128906 54.566406 389.921875 52.902344 391.753906 C 51.242188 393.589844 49.625 395.464844 48.054688 397.378906 C 46.484375 399.289062 44.960938 401.242188 43.488281 403.230469 C 42.011719 405.21875 40.585938 407.242188 39.210938 409.300781 C 37.835938 411.359375 36.511719 413.449219 35.238281 415.570312 C 33.96875 417.695312 32.746094 419.847656 31.582031 422.03125 C 30.414062 424.214844 29.300781 426.425781 28.242188 428.664062 C 27.183594 430.902344 26.179688 433.164062 25.234375 435.449219 C 24.285156 437.738281 23.394531 440.046875 22.5625 442.375 C 21.726562 444.707031 20.953125 447.058594 20.234375 449.425781 C 19.515625 451.796875 18.855469 454.179688 18.253906 456.582031 C 17.652344 458.984375 17.109375 461.398438 16.625 463.824219 C 16.144531 466.253906 15.71875 468.691406 15.355469 471.140625 C 14.992188 473.589844 14.691406 476.042969 14.449219 478.507812 C 14.207031 480.972656 14.023438 483.441406 13.902344 485.914062 C 13.78125 488.386719 13.71875 490.859375 13.71875 493.335938 C 13.71875 495.808594 13.78125 498.285156 13.902344 500.757812 C 14.023438 503.230469 14.207031 505.695312 14.449219 508.160156 C 14.691406 510.625 14.992188 513.078125 15.355469 515.527344 C 15.71875 517.976562 16.144531 520.414062 16.625 522.84375 C 17.109375 525.269531 17.652344 527.6875 18.253906 530.085938 C 18.855469 532.488281 19.515625 534.875 20.234375 537.242188 C 20.953125 539.609375 21.726562 541.960938 22.5625 544.292969 C 23.394531 546.621094 24.285156 548.929688 25.234375 551.21875 C 26.179688 553.503906 27.183594 555.769531 28.242188 558.003906 C 29.300781 560.242188 30.414062 562.453125 31.582031 564.636719 C 32.746094 566.820312 33.96875 568.972656 35.238281 571.097656 C 36.511719 573.21875 37.835938 575.308594 39.210938 577.367188 C 40.585938 579.425781 42.011719 581.449219 43.488281 583.4375 C 44.960938 585.425781 46.484375 587.378906 48.054688 589.292969 C 49.625 591.203125 51.242188 593.078125 52.902344 594.914062 C 54.566406 596.746094 56.273438 598.539062 58.023438 600.289062 C 59.773438 602.039062 61.566406 603.746094 63.398438 605.410156 C 65.234375 607.070312 67.109375 608.6875 69.019531 610.257812 C 70.933594 611.828125 72.886719 613.351562 74.875 614.824219 C 76.863281 616.300781 78.886719 617.726562 80.945312 619.101562 C 83.003906 620.476562 85.09375 621.800781 87.214844 623.074219 C 89.339844 624.34375 91.492188 625.566406 93.675781 626.730469 C 95.859375 627.898438 98.070312 629.011719 100.308594 630.070312 C 102.542969 631.128906 104.808594 632.132812 107.09375 633.078125 C 109.382812 634.027344 111.691406 634.917969 114.019531 635.75 C 116.351562 636.585938 118.703125 637.359375 121.070312 638.078125 C 123.4375 638.796875 125.824219 639.457031 128.226562 640.058594 C 130.625 640.660156 133.042969 641.203125 135.46875 641.6875 C 137.898438 642.167969 140.335938 642.59375 142.785156 642.957031 C 145.234375 643.320312 147.6875 643.621094 150.152344 643.863281 C 152.617188 644.105469 155.082031 644.289062 157.554688 644.410156 C 160.027344 644.53125 162.503906 644.59375 164.976562 644.59375 L 164.976562 707.617188 C 164.976562 709.058594 165.011719 710.503906 165.085938 711.945312 C 165.15625 713.386719 165.261719 714.828125 165.402344 716.265625 C 165.542969 717.703125 165.722656 719.132812 165.933594 720.5625 C 166.144531 721.992188 166.390625 723.414062 166.671875 724.828125 C 166.957031 726.246094 167.273438 727.65625 167.621094 729.054688 C 167.972656 730.457031 168.359375 731.847656 168.777344 733.230469 C 169.195312 734.609375 169.648438 735.980469 170.136719 737.339844 C 170.621094 738.703125 171.140625 740.046875 171.695312 741.382812 C 172.246094 742.714844 172.832031 744.035156 173.449219 745.339844 C 174.066406 746.648438 174.714844 747.9375 175.398438 749.210938 C 176.078125 750.484375 176.789062 751.738281 177.53125 752.976562 C 178.273438 754.214844 179.046875 755.4375 179.847656 756.636719 C 180.652344 757.835938 181.480469 759.015625 182.34375 760.175781 C 183.203125 761.335938 184.089844 762.476562 185.007812 763.589844 C 185.921875 764.707031 186.867188 765.800781 187.835938 766.871094 C 188.804688 767.941406 189.800781 768.984375 190.820312 770.007812 C 191.84375 771.027344 192.886719 772.023438 193.957031 772.992188 C 195.027344 773.964844 196.121094 774.90625 197.238281 775.820312 C 198.351562 776.738281 199.492188 777.625 200.652344 778.488281 C 201.8125 779.347656 202.992188 780.179688 204.191406 780.980469 C 205.390625 781.78125 206.613281 782.554688 207.851562 783.296875 C 209.089844 784.039062 210.34375 784.75 211.617188 785.433594 C 212.890625 786.113281 214.183594 786.761719 215.488281 787.378906 C 216.792969 787.996094 218.113281 788.582031 219.445312 789.132812 C 220.78125 789.6875 222.128906 790.207031 223.488281 790.691406 C 224.847656 791.179688 226.21875 791.632812 227.597656 792.050781 C 228.980469 792.46875 230.371094 792.855469 231.773438 793.207031 C 233.171875 793.558594 234.582031 793.875 236 794.15625 C 237.414062 794.4375 238.835938 794.683594 240.265625 794.894531 C 241.695312 795.105469 243.125 795.285156 244.5625 795.425781 C 246 795.566406 247.441406 795.671875 248.882812 795.742188 C 250.324219 795.816406 251.769531 795.851562 253.210938 795.851562 L 555.726562 795.851562 C 557.171875 795.851562 558.617188 795.816406 560.058594 795.742188 C 561.5 795.671875 562.941406 795.566406 564.375 795.425781 C 565.8125 795.285156 567.246094 795.105469 568.675781 794.894531 C 570.101562 794.683594 571.527344 794.4375 572.941406 794.15625 C 574.359375 793.875 575.765625 793.558594 577.167969 793.207031 C 578.566406 792.855469 579.960938 792.46875 581.339844 792.050781 C 582.722656 791.632812 584.09375 791.179688 585.453125 790.691406 C 586.8125 790.207031 588.160156 789.6875 589.492188 789.132812 C 590.828125 788.582031 592.148438 787.996094 593.453125 787.378906 C 594.757812 786.761719 596.046875 786.113281 597.320312 785.433594 C 598.59375 784.75 599.851562 784.039062 601.089844 783.296875 C 602.328125 782.554688 603.546875 781.78125 604.75 780.980469 C 605.949219 780.179688 607.128906 779.347656 608.289062 778.488281 C 609.449219 777.625 610.585938 776.738281 611.703125 775.820312 C 612.820312 774.90625 613.914062 773.964844 614.980469 772.992188 C 616.050781 772.023438 617.097656 771.027344 618.117188 770.007812 C 619.140625 768.984375 620.136719 767.941406 621.105469 766.871094 C 622.074219 765.800781 623.019531 764.707031 623.933594 763.589844 C 624.851562 762.476562 625.738281 761.335938 626.597656 760.175781 C 627.457031 759.015625 628.289062 757.835938 629.09375 756.636719 C 629.894531 755.4375 630.667969 754.214844 631.410156 752.976562 C 632.152344 751.738281 632.863281 750.484375 633.542969 749.210938 C 634.222656 747.9375 634.875 746.648438 635.492188 745.339844 C 636.109375 744.035156 636.691406 742.714844 637.246094 741.382812 C 637.796875 740.046875 638.316406 738.703125 638.804688 737.339844 C 639.289062 735.980469 639.742188 734.609375 640.164062 733.230469 C 640.582031 731.847656 640.96875 730.457031 641.316406 729.054688 C 641.667969 727.65625 641.984375 726.246094 642.265625 724.828125 C 642.546875 723.414062 642.796875 721.992188 643.007812 720.5625 C 643.21875 719.132812 643.394531 717.703125 643.539062 716.265625 C 643.679688 714.828125 643.785156 713.386719 643.855469 711.945312 C 643.925781 710.503906 643.960938 709.058594 643.960938 707.617188 L 643.960938 455.519531 C 646.4375 455.519531 648.910156 455.457031 651.382812 455.335938 C 653.855469 455.214844 656.324219 455.035156 658.789062 454.792969 C 661.25 454.546875 663.707031 454.246094 666.15625 453.882812 C 668.605469 453.519531 671.042969 453.097656 673.472656 452.613281 C 675.898438 452.128906 678.3125 451.589844 680.714844 450.988281 C 683.117188 450.386719 685.5 449.726562 687.871094 449.007812 C 690.238281 448.289062 692.589844 447.511719 694.917969 446.679688 C 697.25 445.84375 699.558594 444.953125 701.847656 444.007812 C 704.132812 443.058594 706.394531 442.054688 708.632812 440.996094 C 710.871094 439.9375 713.082031 438.828125 715.265625 437.660156 C 717.449219 436.492188 719.601562 435.273438 721.722656 434 C 723.847656 432.726562 725.9375 431.402344 727.996094 430.027344 C 730.054688 428.652344 732.078125 427.226562 734.066406 425.753906 C 736.054688 424.277344 738.003906 422.757812 739.917969 421.1875 C 741.832031 419.617188 743.707031 418 745.539062 416.335938 C 747.375 414.675781 749.167969 412.96875 750.917969 411.21875 C 752.667969 409.46875 754.375 407.675781 756.035156 405.839844 C 757.699219 404.007812 759.316406 402.132812 760.886719 400.21875 C 762.457031 398.304688 763.980469 396.355469 765.453125 394.367188 C 766.929688 392.378906 768.351562 390.355469 769.726562 388.296875 C 771.105469 386.238281 772.425781 384.148438 773.699219 382.023438 C 774.972656 379.902344 776.191406 377.746094 777.359375 375.5625 C 778.527344 373.382812 779.640625 371.171875 780.699219 368.933594 C 781.757812 366.695312 782.757812 364.433594 783.707031 362.144531 C 784.652344 359.859375 785.542969 357.550781 786.378906 355.21875 C 787.210938 352.886719 787.988281 350.539062 788.707031 348.167969 C 789.425781 345.800781 790.085938 343.414062 790.6875 341.015625 C 791.289062 338.613281 791.832031 336.199219 792.3125 333.769531 C 792.796875 331.34375 793.21875 328.90625 793.582031 326.457031 C 793.945312 324.007812 794.25 321.550781 794.492188 319.085938 C 794.734375 316.625 794.917969 314.15625 795.039062 311.683594 C 795.160156 309.210938 795.21875 306.738281 795.21875 304.261719 C 795.21875 301.785156 795.160156 299.3125 795.039062 296.839844 C 794.917969 294.367188 794.734375 291.898438 794.492188 289.4375 C 794.25 286.972656 793.945312 284.515625 793.582031 282.066406 C 793.21875 279.617188 792.796875 277.179688 792.3125 274.753906 C 791.832031 272.324219 791.289062 269.910156 790.6875 267.507812 C 790.085938 265.109375 789.425781 262.722656 788.707031 260.355469 C 787.988281 257.984375 787.210938 255.636719 786.378906 253.304688 C 785.542969 250.972656 784.652344 248.664062 783.707031 246.378906 C 782.757812 244.089844 781.757812 241.828125 780.699219 239.589844 C 779.640625 237.351562 778.527344 235.140625 777.359375 232.960938 C 776.191406 230.777344 774.972656 228.621094 773.699219 226.5 C 772.425781 224.375 771.105469 222.285156 769.726562 220.226562 C 768.351562 218.167969 766.929688 216.144531 765.453125 214.15625 C 763.980469 212.167969 762.457031 210.21875 760.886719 208.304688 C 759.316406 206.390625 757.699219 204.515625 756.035156 202.683594 C 754.375 200.847656 752.667969 199.054688 750.917969 197.304688 C 749.167969 195.554688 747.375 193.847656 745.539062 192.1875 C 743.707031 190.523438 741.832031 188.90625 739.917969 187.335938 C 738.003906 185.765625 736.054688 184.246094 734.066406 182.769531 C 732.078125 181.296875 730.054688 179.871094 727.996094 178.496094 C 725.9375 177.121094 723.847656 175.796875 721.722656 174.523438 C 719.601562 173.25 717.449219 172.03125 715.265625 170.863281 C 713.082031 169.695312 710.871094 168.585938 708.632812 167.527344 C 706.394531 166.46875 704.132812 165.464844 701.847656 164.515625 C 699.558594 163.570312 697.25 162.679688 694.917969 161.84375 C 692.589844 161.011719 690.238281 160.234375 687.871094 159.515625 C 685.5 158.796875 683.117188 158.136719 680.714844 157.535156 C 678.3125 156.933594 675.898438 156.394531 673.472656 155.910156 C 671.042969 155.425781 668.605469 155.003906 666.15625 154.640625 C 663.707031 154.277344 661.25 153.976562 658.789062 153.730469 C 656.324219 153.488281 653.855469 153.308594 651.382812 153.1875 C 648.910156 153.0625 646.4375 153.003906 643.960938 153.003906 Z M 190.1875 102.585938 C 190.1875 100.519531 190.289062 98.460938 190.492188 96.40625 C 190.695312 94.351562 190.996094 92.3125 191.398438 90.289062 C 191.800781 88.265625 192.300781 86.265625 192.902344 84.289062 C 193.5 82.3125 194.195312 80.371094 194.984375 78.464844 C 195.773438 76.558594 196.65625 74.695312 197.628906 72.875 C 198.601562 71.054688 199.664062 69.285156 200.808594 67.570312 C 201.957031 65.855469 203.183594 64.199219 204.492188 62.601562 C 205.804688 61.007812 207.1875 59.480469 208.648438 58.019531 C 210.105469 56.558594 211.632812 55.175781 213.230469 53.867188 C 214.824219 52.554688 216.480469 51.328125 218.199219 50.179688 C 219.914062 49.035156 221.683594 47.976562 223.503906 47 C 225.324219 46.027344 227.1875 45.148438 229.09375 44.359375 C 231 43.566406 232.941406 42.875 234.917969 42.273438 C 236.890625 41.675781 238.890625 41.171875 240.917969 40.769531 C 242.941406 40.367188 244.980469 40.066406 247.035156 39.863281 C 249.089844 39.660156 251.148438 39.558594 253.210938 39.558594 L 555.726562 39.558594 C 557.792969 39.558594 559.851562 39.660156 561.90625 39.863281 C 563.960938 40.066406 566 40.367188 568.023438 40.769531 C 570.046875 41.171875 572.046875 41.675781 574.023438 42.273438 C 576 42.875 577.941406 43.566406 579.847656 44.359375 C 581.753906 45.148438 583.617188 46.027344 585.4375 47 C 587.257812 47.976562 589.027344 49.035156 590.742188 50.179688 C 592.457031 51.328125 594.113281 52.554688 595.710938 53.867188 C 597.304688 55.175781 598.832031 56.558594 600.292969 58.019531 C 601.753906 59.480469 603.136719 61.007812 604.445312 62.601562 C 605.757812 64.199219 606.984375 65.855469 608.128906 67.570312 C 609.277344 69.285156 610.335938 71.054688 611.308594 72.875 C 612.285156 74.695312 613.164062 76.558594 613.953125 78.464844 C 614.746094 80.371094 615.4375 82.3125 616.039062 84.289062 C 616.636719 86.265625 617.136719 88.265625 617.542969 90.289062 C 617.945312 92.3125 618.246094 94.351562 618.449219 96.40625 C 618.652344 98.460938 618.753906 100.519531 618.753906 102.585938 L 618.753906 155.273438 C 610.160156 156.730469 601.757812 158.914062 593.542969 161.828125 L 593.542969 115.1875 C 593.542969 113.539062 593.460938 111.890625 593.300781 110.246094 C 593.136719 108.605469 592.894531 106.972656 592.574219 105.351562 C 592.25 103.734375 591.851562 102.132812 591.371094 100.554688 C 590.890625 98.972656 590.335938 97.421875 589.703125 95.894531 C 589.074219 94.367188 588.367188 92.878906 587.589844 91.421875 C 586.8125 89.964844 585.960938 88.550781 585.046875 87.175781 C 584.128906 85.804688 583.144531 84.480469 582.097656 83.203125 C 581.050781 81.925781 579.941406 80.703125 578.773438 79.539062 C 577.609375 78.371094 576.386719 77.261719 575.109375 76.214844 C 573.832031 75.167969 572.507812 74.183594 571.132812 73.265625 C 569.761719 72.347656 568.347656 71.5 566.890625 70.722656 C 565.433594 69.945312 563.945312 69.238281 562.417969 68.609375 C 560.890625 67.976562 559.339844 67.421875 557.757812 66.941406 C 556.179688 66.460938 554.578125 66.0625 552.960938 65.738281 C 551.339844 65.417969 549.707031 65.175781 548.066406 65.011719 C 546.421875 64.851562 544.773438 64.769531 543.125 64.769531 L 505.308594 64.769531 C 504.480469 64.769531 503.660156 64.851562 502.851562 65.011719 C 502.039062 65.171875 501.25 65.414062 500.484375 65.730469 C 499.71875 66.046875 498.996094 66.433594 498.304688 66.894531 C 497.617188 67.355469 496.980469 67.875 496.394531 68.460938 C 495.8125 69.046875 495.289062 69.683594 494.828125 70.371094 C 494.367188 71.058594 493.980469 71.785156 493.664062 72.550781 C 493.347656 73.316406 493.109375 74.105469 492.945312 74.914062 C 492.785156 75.726562 492.703125 76.546875 492.703125 77.375 L 492.703125 102.585938 C 492.703125 103.410156 492.625 104.230469 492.460938 105.042969 C 492.300781 105.855469 492.0625 106.644531 491.746094 107.40625 C 491.425781 108.171875 491.039062 108.898438 490.578125 109.585938 C 490.121094 110.273438 489.597656 110.910156 489.011719 111.496094 C 488.425781 112.082031 487.789062 112.605469 487.101562 113.066406 C 486.414062 113.523438 485.6875 113.914062 484.921875 114.230469 C 484.15625 114.546875 483.371094 114.785156 482.558594 114.945312 C 481.746094 115.109375 480.925781 115.1875 480.097656 115.1875 L 328.839844 115.1875 C 328.011719 115.1875 327.195312 115.109375 326.382812 114.945312 C 325.570312 114.785156 324.78125 114.546875 324.015625 114.230469 C 323.253906 113.914062 322.527344 113.523438 321.839844 113.066406 C 321.148438 112.605469 320.511719 112.082031 319.929688 111.496094 C 319.34375 110.910156 318.820312 110.273438 318.359375 109.585938 C 317.902344 108.898438 317.511719 108.171875 317.195312 107.40625 C 316.878906 106.644531 316.640625 105.855469 316.476562 105.042969 C 316.316406 104.230469 316.234375 103.410156 316.234375 102.585938 L 316.234375 77.375 C 316.234375 76.546875 316.15625 75.726562 315.992188 74.914062 C 315.832031 74.105469 315.59375 73.316406 315.277344 72.550781 C 314.960938 71.785156 314.570312 71.058594 314.113281 70.371094 C 313.652344 69.683594 313.128906 69.046875 312.542969 68.460938 C 311.960938 67.875 311.324219 67.355469 310.632812 66.894531 C 309.945312 66.433594 309.21875 66.046875 308.453125 65.730469 C 307.691406 65.414062 306.902344 65.171875 306.089844 65.011719 C 305.277344 64.851562 304.460938 64.769531 303.632812 64.769531 L 265.816406 64.769531 C 264.164062 64.769531 262.519531 64.851562 260.875 65.011719 C 259.230469 65.175781 257.601562 65.417969 255.980469 65.738281 C 254.359375 66.0625 252.761719 66.460938 251.179688 66.941406 C 249.601562 67.421875 248.046875 67.976562 246.523438 68.609375 C 244.996094 69.238281 243.503906 69.945312 242.050781 70.722656 C 240.59375 71.5 239.179688 72.347656 237.804688 73.265625 C 236.433594 74.183594 235.109375 75.167969 233.832031 76.214844 C 232.554688 77.261719 231.332031 78.371094 230.164062 79.539062 C 228.996094 80.703125 227.890625 81.925781 226.84375 83.203125 C 225.792969 84.480469 224.8125 85.804688 223.894531 87.175781 C 222.976562 88.550781 222.128906 89.964844 221.351562 91.421875 C 220.574219 92.878906 219.867188 94.367188 219.234375 95.894531 C 218.605469 97.421875 218.046875 98.972656 217.570312 100.554688 C 217.089844 102.132812 216.6875 103.734375 216.367188 105.351562 C 216.042969 106.972656 215.800781 108.605469 215.640625 110.246094 C 215.476562 111.890625 215.398438 113.539062 215.398438 115.1875 L 215.398438 350.773438 C 207.175781 347.890625 198.773438 345.707031 190.1875 344.21875 Z M 496.105469 451.613281 C 497.304688 452.871094 498.703125 453.839844 500.304688 454.515625 C 501.902344 455.195312 503.570312 455.53125 505.308594 455.519531 C 507.015625 455.515625 508.65625 455.179688 510.226562 454.511719 L 562.914062 431.949219 L 568.332031 435.101562 L 568.332031 695.011719 C 568.332031 695.835938 568.292969 696.660156 568.210938 697.484375 C 568.128906 698.304688 568.007812 699.121094 567.847656 699.929688 C 567.6875 700.738281 567.488281 701.539062 567.246094 702.328125 C 567.007812 703.121094 566.730469 703.894531 566.414062 704.660156 C 566.097656 705.421875 565.746094 706.167969 565.355469 706.894531 C 564.96875 707.625 564.542969 708.332031 564.085938 709.015625 C 563.625 709.703125 563.132812 710.367188 562.609375 711.003906 C 562.085938 711.644531 561.53125 712.253906 560.949219 712.835938 C 560.367188 713.421875 559.753906 713.976562 559.117188 714.5 C 558.476562 715.023438 557.816406 715.515625 557.128906 715.972656 C 556.441406 716.429688 555.734375 716.855469 555.007812 717.246094 C 554.277344 717.632812 553.535156 717.988281 552.769531 718.300781 C 552.007812 718.617188 551.230469 718.894531 550.441406 719.136719 C 549.652344 719.375 548.851562 719.574219 548.042969 719.738281 C 547.230469 719.898438 546.414062 720.019531 545.59375 720.101562 C 544.773438 720.179688 543.949219 720.222656 543.125 720.222656 L 505.308594 720.222656 L 505.308594 707.617188 C 505.308594 706.378906 505.25 705.140625 505.125 703.910156 C 505.003906 702.675781 504.824219 701.453125 504.582031 700.238281 C 504.339844 699.023438 504.039062 697.824219 503.679688 696.640625 C 503.320312 695.453125 502.902344 694.289062 502.429688 693.144531 C 501.957031 692 501.425781 690.882812 500.84375 689.789062 C 500.261719 688.699219 499.625 687.636719 498.9375 686.609375 C 498.246094 685.578125 497.511719 684.585938 496.726562 683.628906 C 495.941406 682.667969 495.109375 681.753906 494.234375 680.878906 C 493.359375 680 492.441406 679.171875 491.484375 678.386719 C 490.527344 677.601562 489.53125 676.863281 488.503906 676.175781 C 487.472656 675.488281 486.414062 674.851562 485.320312 674.265625 C 484.226562 673.683594 483.109375 673.15625 481.964844 672.679688 C 480.820312 672.207031 479.65625 671.789062 478.472656 671.429688 C 477.285156 671.070312 476.085938 670.769531 474.871094 670.527344 C 473.65625 670.285156 472.433594 670.105469 471.199219 669.984375 C 469.96875 669.863281 468.734375 669.800781 467.496094 669.800781 L 341.445312 669.800781 C 340.207031 669.800781 338.972656 669.863281 337.738281 669.984375 C 336.507812 670.105469 335.285156 670.285156 334.070312 670.527344 C 332.855469 670.769531 331.652344 671.070312 330.46875 671.429688 C 329.285156 671.789062 328.121094 672.207031 326.976562 672.679688 C 325.832031 673.15625 324.710938 673.683594 323.621094 674.265625 C 322.527344 674.851562 321.46875 675.488281 320.4375 676.175781 C 319.40625 676.863281 318.414062 677.601562 317.457031 678.386719 C 316.5 679.171875 315.582031 680 314.707031 680.878906 C 313.832031 681.753906 313 682.667969 312.214844 683.628906 C 311.429688 684.585938 310.691406 685.578125 310.003906 686.609375 C 309.316406 687.636719 308.679688 688.699219 308.097656 689.789062 C 307.511719 690.882812 306.984375 692 306.511719 693.144531 C 306.035156 694.289062 305.621094 695.453125 305.257812 696.640625 C 304.898438 697.824219 304.601562 699.023438 304.359375 700.238281 C 304.117188 701.453125 303.933594 702.675781 303.8125 703.910156 C 303.691406 705.140625 303.632812 706.378906 303.632812 707.617188 L 303.632812 720.222656 L 265.816406 720.222656 C 264.992188 720.222656 264.167969 720.179688 263.347656 720.101562 C 262.523438 720.019531 261.707031 719.898438 260.898438 719.738281 C 260.089844 719.574219 259.289062 719.375 258.5 719.136719 C 257.707031 718.894531 256.933594 718.617188 256.167969 718.300781 C 255.40625 717.988281 254.660156 717.632812 253.933594 717.246094 C 253.203125 716.855469 252.496094 716.429688 251.8125 715.972656 C 251.125 715.515625 250.460938 715.023438 249.824219 714.5 C 249.1875 713.976562 248.574219 713.421875 247.992188 712.835938 C 247.40625 712.253906 246.851562 711.644531 246.328125 711.003906 C 245.804688 710.367188 245.316406 709.703125 244.855469 709.015625 C 244.398438 708.332031 243.972656 707.625 243.582031 706.894531 C 243.195312 706.167969 242.84375 705.421875 242.527344 704.660156 C 242.210938 703.894531 241.933594 703.121094 241.691406 702.328125 C 241.453125 701.539062 241.253906 700.738281 241.089844 699.929688 C 240.929688 699.121094 240.808594 698.304688 240.730469 697.484375 C 240.648438 696.660156 240.605469 695.835938 240.605469 695.011719 L 240.605469 624.171875 C 243.464844 622.523438 246.261719 620.78125 249.003906 618.953125 C 251.746094 617.121094 254.425781 615.199219 257.042969 613.191406 C 259.660156 611.183594 262.207031 609.09375 264.6875 606.921875 C 267.167969 604.746094 269.574219 602.492188 271.90625 600.164062 C 274.238281 597.832031 276.492188 595.425781 278.667969 592.945312 C 280.84375 590.46875 282.933594 587.921875 284.945312 585.304688 C 286.953125 582.691406 288.875 580.011719 290.707031 577.269531 C 292.539062 574.527344 294.28125 571.730469 295.933594 568.875 C 297.582031 566.019531 299.136719 563.113281 300.597656 560.15625 C 302.058594 557.199219 303.421875 554.199219 304.683594 551.152344 C 305.949219 548.105469 307.113281 545.023438 308.175781 541.902344 C 309.238281 538.777344 310.195312 535.625 311.050781 532.441406 C 311.910156 529.253906 312.660156 526.046875 313.304688 522.8125 C 313.953125 519.578125 314.492188 516.328125 314.925781 513.058594 C 315.359375 509.789062 315.683594 506.507812 315.902344 503.21875 C 316.121094 499.925781 316.234375 496.632812 316.234375 493.335938 C 316.289062 485.886719 315.789062 478.476562 314.738281 471.101562 C 313.683594 463.730469 312.089844 456.476562 309.953125 449.339844 C 307.816406 442.207031 305.164062 435.269531 301.992188 428.53125 C 298.820312 421.792969 295.164062 415.328125 291.027344 409.132812 L 315.355469 360.351562 C 315.648438 359.777344 315.898438 359.183594 316.101562 358.574219 C 316.304688 357.960938 316.460938 357.335938 316.566406 356.699219 C 316.675781 356.0625 316.734375 355.421875 316.742188 354.777344 C 316.75 354.128906 316.710938 353.488281 316.621094 352.847656 C 316.53125 352.210938 316.394531 351.582031 316.207031 350.964844 C 316.019531 350.34375 315.789062 349.746094 315.507812 349.164062 C 315.230469 348.582031 314.910156 348.023438 314.546875 347.488281 C 314.179688 346.957031 313.777344 346.453125 313.335938 345.984375 C 312.894531 345.519531 312.421875 345.089844 311.914062 344.699219 C 311.410156 344.308594 310.875 343.957031 310.316406 343.644531 C 309.757812 343.332031 309.175781 343.066406 308.574219 342.84375 C 307.976562 342.621094 307.359375 342.445312 306.734375 342.316406 C 306.105469 342.1875 305.472656 342.109375 304.832031 342.074219 C 304.195312 342.042969 303.554688 342.058594 302.917969 342.125 C 302.28125 342.191406 301.652344 342.304688 301.03125 342.464844 C 300.414062 342.625 299.808594 342.832031 299.21875 343.085938 L 246.53125 365.648438 L 240.605469 362.496094 L 240.605469 115.1875 C 240.605469 114.363281 240.648438 113.539062 240.730469 112.71875 C 240.808594 111.894531 240.929688 111.082031 241.089844 110.269531 C 241.253906 109.460938 241.453125 108.660156 241.691406 107.871094 C 241.933594 107.082031 242.210938 106.304688 242.527344 105.542969 C 242.84375 104.777344 243.195312 104.035156 243.582031 103.304688 C 243.972656 102.578125 244.398438 101.871094 244.855469 101.183594 C 245.316406 100.496094 245.804688 99.835938 246.328125 99.195312 C 246.851562 98.558594 247.40625 97.945312 247.992188 97.363281 C 248.574219 96.78125 249.1875 96.226562 249.824219 95.703125 C 250.460938 95.179688 251.125 94.6875 251.8125 94.226562 C 252.496094 93.769531 253.203125 93.34375 253.933594 92.957031 C 254.660156 92.566406 255.40625 92.214844 256.167969 91.898438 C 256.933594 91.582031 257.707031 91.304688 258.5 91.066406 C 259.289062 90.824219 260.089844 90.625 260.898438 90.464844 C 261.707031 90.304688 262.523438 90.183594 263.347656 90.101562 C 264.167969 90.019531 264.992188 89.980469 265.816406 89.980469 L 291.027344 89.980469 L 291.027344 102.585938 C 291.027344 103.824219 291.085938 105.058594 291.207031 106.289062 C 291.328125 107.523438 291.511719 108.746094 291.753906 109.960938 C 291.996094 111.175781 292.296875 112.375 292.65625 113.5625 C 293.015625 114.746094 293.429688 115.910156 293.90625 117.054688 C 294.378906 118.199219 294.90625 119.316406 295.492188 120.410156 C 296.074219 121.503906 296.710938 122.5625 297.398438 123.59375 C 298.085938 124.621094 298.824219 125.617188 299.609375 126.574219 C 300.394531 127.53125 301.226562 128.449219 302.101562 129.324219 C 302.976562 130.199219 303.894531 131.03125 304.851562 131.816406 C 305.808594 132.601562 306.800781 133.335938 307.832031 134.027344 C 308.863281 134.714844 309.921875 135.351562 311.015625 135.933594 C 312.109375 136.515625 313.226562 137.046875 314.371094 137.519531 C 315.515625 137.996094 316.679688 138.410156 317.863281 138.769531 C 319.050781 139.128906 320.25 139.429688 321.464844 139.671875 C 322.679688 139.914062 323.902344 140.09375 325.132812 140.214844 C 326.367188 140.339844 327.601562 140.398438 328.839844 140.398438 L 480.097656 140.398438 C 481.335938 140.398438 482.574219 140.339844 483.804688 140.214844 C 485.039062 140.09375 486.261719 139.914062 487.476562 139.671875 C 488.691406 139.429688 489.890625 139.128906 491.074219 138.769531 C 492.261719 138.410156 493.425781 137.996094 494.570312 137.519531 C 495.714844 137.046875 496.832031 136.515625 497.925781 135.933594 C 499.015625 135.351562 500.078125 134.714844 501.109375 134.027344 C 502.136719 133.335938 503.132812 132.601562 504.089844 131.816406 C 505.046875 131.03125 505.960938 130.199219 506.839844 129.324219 C 507.714844 128.449219 508.542969 127.53125 509.332031 126.574219 C 510.117188 125.617188 510.851562 124.621094 511.539062 123.59375 C 512.230469 122.5625 512.863281 121.503906 513.449219 120.410156 C 514.03125 119.316406 514.5625 118.199219 515.035156 117.054688 C 515.507812 115.910156 515.925781 114.746094 516.285156 113.5625 C 516.644531 112.375 516.945312 111.175781 517.1875 109.960938 C 517.429688 108.746094 517.609375 107.523438 517.730469 106.289062 C 517.851562 105.058594 517.914062 103.824219 517.914062 102.585938 L 517.914062 89.980469 L 543.125 89.980469 C 543.949219 89.980469 544.773438 90.019531 545.59375 90.101562 C 546.417969 90.183594 547.230469 90.304688 548.042969 90.464844 C 548.851562 90.625 549.652344 90.824219 550.441406 91.066406 C 551.230469 91.304688 552.007812 91.582031 552.769531 91.898438 C 553.535156 92.214844 554.277344 92.566406 555.007812 92.957031 C 555.734375 93.34375 556.441406 93.769531 557.128906 94.226562 C 557.816406 94.6875 558.476562 95.179688 559.117188 95.703125 C 559.753906 96.226562 560.367188 96.78125 560.949219 97.363281 C 561.53125 97.945312 562.085938 98.558594 562.609375 99.195312 C 563.132812 99.835938 563.625 100.496094 564.085938 101.183594 C 564.542969 101.871094 564.96875 102.578125 565.355469 103.304688 C 565.746094 104.035156 566.097656 104.777344 566.414062 105.542969 C 566.730469 106.304688 567.007812 107.082031 567.246094 107.871094 C 567.488281 108.660156 567.6875 109.460938 567.847656 110.269531 C 568.007812 111.082031 568.128906 111.894531 568.210938 112.71875 C 568.292969 113.539062 568.332031 114.363281 568.332031 115.1875 L 568.332031 173.421875 C 565.476562 175.074219 562.679688 176.8125 559.9375 178.644531 C 557.195312 180.476562 554.515625 182.398438 551.898438 184.402344 C 549.28125 186.410156 546.734375 188.5 544.253906 190.675781 C 541.773438 192.851562 539.367188 195.101562 537.035156 197.433594 C 534.703125 199.765625 532.449219 202.171875 530.273438 204.648438 C 528.097656 207.128906 526.003906 209.675781 523.996094 212.289062 C 521.988281 214.90625 520.066406 217.585938 518.234375 220.324219 C 516.398438 223.066406 514.65625 225.867188 513.007812 228.71875 C 511.355469 231.574219 509.800781 234.480469 508.339844 237.4375 C 506.882812 240.394531 505.519531 243.398438 504.253906 246.441406 C 502.992188 249.488281 501.828125 252.574219 500.765625 255.695312 C 499.703125 258.816406 498.746094 261.972656 497.886719 265.15625 C 497.03125 268.339844 496.28125 271.550781 495.636719 274.785156 C 494.988281 278.019531 494.449219 281.269531 494.015625 284.539062 C 493.582031 287.808594 493.257812 291.089844 493.039062 294.378906 C 492.820312 297.667969 492.707031 300.964844 492.703125 304.261719 C 492.648438 311.710938 493.148438 319.121094 494.203125 326.492188 C 495.253906 333.867188 496.851562 341.121094 498.988281 348.253906 C 501.121094 355.390625 503.777344 362.328125 506.949219 369.066406 C 510.121094 375.804688 513.777344 382.269531 517.914062 388.460938 L 493.585938 437.242188 C 493.308594 437.828125 493.074219 438.433594 492.890625 439.054688 C 492.707031 439.679688 492.570312 440.3125 492.480469 440.957031 C 492.394531 441.597656 492.355469 442.246094 492.371094 442.894531 C 492.382812 443.546875 492.445312 444.191406 492.558594 444.828125 C 492.667969 445.46875 492.828125 446.097656 493.039062 446.710938 C 493.246094 447.328125 493.503906 447.921875 493.804688 448.496094 C 494.105469 449.070312 494.449219 449.621094 494.835938 450.144531 C 495.222656 450.664062 495.644531 451.15625 496.105469 451.613281 Z M 480.097656 720.222656 L 328.839844 720.222656 L 328.839844 707.617188 C 328.839844 706.789062 328.921875 705.96875 329.082031 705.15625 C 329.246094 704.34375 329.484375 703.558594 329.800781 702.792969 C 330.117188 702.027344 330.503906 701.300781 330.964844 700.613281 C 331.425781 699.925781 331.949219 699.289062 332.53125 698.703125 C 333.117188 698.117188 333.753906 697.597656 334.441406 697.136719 C 335.132812 696.675781 335.859375 696.289062 336.621094 695.972656 C 337.386719 695.65625 338.175781 695.414062 338.988281 695.253906 C 339.796875 695.09375 340.617188 695.011719 341.445312 695.011719 L 467.496094 695.011719 C 468.320312 695.011719 469.140625 695.09375 469.953125 695.253906 C 470.765625 695.414062 471.554688 695.65625 472.316406 695.972656 C 473.082031 696.289062 473.808594 696.675781 474.496094 697.136719 C 475.183594 697.59375 475.820312 698.117188 476.40625 698.703125 C 476.992188 699.289062 477.515625 699.925781 477.976562 700.613281 C 478.433594 701.300781 478.824219 702.027344 479.140625 702.792969 C 479.457031 703.558594 479.695312 704.34375 479.855469 705.15625 C 480.019531 705.96875 480.097656 706.789062 480.097656 707.617188 Z M 38.929688 493.335938 C 38.933594 490.46875 39.03125 487.605469 39.230469 484.75 C 39.425781 481.890625 39.722656 479.042969 40.113281 476.203125 C 40.507812 473.367188 40.992188 470.542969 41.578125 467.738281 C 42.164062 464.933594 42.839844 462.152344 43.617188 459.394531 C 44.390625 456.636719 45.257812 453.90625 46.214844 451.207031 C 47.175781 448.507812 48.226562 445.84375 49.371094 443.214844 C 50.511719 440.585938 51.742188 438 53.058594 435.457031 C 54.375 432.914062 55.78125 430.417969 57.269531 427.96875 C 58.757812 425.519531 60.328125 423.125 61.976562 420.785156 C 63.628906 418.441406 65.359375 416.160156 67.167969 413.9375 C 68.972656 411.714844 70.855469 409.554688 72.808594 407.460938 C 74.761719 405.363281 76.785156 403.339844 78.878906 401.382812 C 80.972656 399.425781 83.128906 397.539062 85.351562 395.730469 C 87.570312 393.921875 89.851562 392.1875 92.191406 390.535156 C 94.53125 388.878906 96.921875 387.304688 99.367188 385.816406 C 101.816406 384.324219 104.308594 382.917969 106.851562 381.597656 C 109.394531 380.273438 111.980469 379.042969 114.605469 377.894531 C 117.230469 376.75 119.894531 375.695312 122.59375 374.734375 C 125.292969 373.769531 128.019531 372.898438 130.777344 372.121094 C 133.535156 371.34375 136.316406 370.664062 139.121094 370.074219 C 141.925781 369.488281 144.746094 368.996094 147.582031 368.601562 C 150.421875 368.203125 153.269531 367.90625 156.125 367.703125 C 158.984375 367.503906 161.847656 367.398438 164.710938 367.394531 C 167.578125 367.386719 170.4375 367.480469 173.296875 367.667969 C 176.15625 367.859375 179.007812 368.144531 181.84375 368.527344 C 184.683594 368.910156 187.507812 369.390625 190.316406 369.964844 C 193.121094 370.542969 195.90625 371.214844 198.667969 371.980469 C 201.425781 372.746094 204.160156 373.601562 206.859375 374.554688 C 209.5625 375.507812 212.230469 376.550781 214.863281 377.683594 C 217.492188 378.816406 220.082031 380.039062 222.628906 381.351562 C 225.179688 382.660156 227.679688 384.058594 230.132812 385.539062 C 232.585938 387.019531 234.984375 388.582031 237.328125 390.226562 C 238.230469 390.878906 239.203125 391.402344 240.242188 391.796875 C 241.28125 392.191406 242.355469 392.445312 243.460938 392.554688 C 244.570312 392.667969 245.671875 392.628906 246.769531 392.449219 C 247.867188 392.269531 248.921875 391.949219 249.933594 391.488281 L 276.910156 379.890625 L 264.304688 405.101562 C 263.863281 406.125 263.558594 407.1875 263.398438 408.289062 C 263.238281 409.394531 263.226562 410.5 263.359375 411.605469 C 263.492188 412.714844 263.765625 413.785156 264.183594 414.820312 C 264.601562 415.855469 265.144531 416.816406 265.816406 417.707031 C 269.90625 423.109375 273.53125 428.808594 276.691406 434.804688 C 279.847656 440.804688 282.5 447.015625 284.644531 453.445312 C 286.785156 459.875 288.394531 466.4375 289.464844 473.128906 C 290.535156 479.820312 291.054688 486.558594 291.027344 493.335938 C 291.027344 495.398438 290.976562 497.457031 290.875 499.519531 C 290.773438 501.578125 290.621094 503.636719 290.417969 505.6875 C 290.21875 507.742188 289.964844 509.789062 289.664062 511.828125 C 289.359375 513.871094 289.007812 515.902344 288.605469 517.925781 C 288.203125 519.949219 287.75 521.960938 287.25 523.960938 C 286.746094 525.960938 286.199219 527.949219 285.597656 529.925781 C 285 531.898438 284.351562 533.855469 283.660156 535.796875 C 282.964844 537.742188 282.222656 539.664062 281.433594 541.570312 C 280.640625 543.476562 279.804688 545.363281 278.925781 547.226562 C 278.042969 549.089844 277.117188 550.933594 276.144531 552.753906 C 275.171875 554.574219 274.152344 556.367188 273.09375 558.136719 C 272.03125 559.90625 270.929688 561.648438 269.785156 563.363281 C 268.636719 565.078125 267.449219 566.765625 266.222656 568.421875 C 264.992188 570.078125 263.722656 571.703125 262.414062 573.296875 C 261.105469 574.894531 259.757812 576.453125 258.375 577.984375 C 256.988281 579.511719 255.566406 581.003906 254.109375 582.464844 C 252.648438 583.921875 251.15625 585.34375 249.628906 586.730469 C 248.097656 588.117188 246.535156 589.460938 244.941406 590.769531 C 243.347656 592.078125 241.722656 593.347656 240.066406 594.578125 C 238.40625 595.804688 236.722656 596.992188 235.007812 598.140625 C 233.292969 599.285156 231.550781 600.390625 229.78125 601.449219 C 228.011719 602.511719 226.214844 603.527344 224.398438 604.5 C 222.578125 605.472656 220.734375 606.398438 218.871094 607.28125 C 217.007812 608.164062 215.121094 609 213.214844 609.789062 C 211.308594 610.578125 209.386719 611.320312 207.441406 612.015625 C 205.5 612.710938 203.542969 613.355469 201.566406 613.953125 C 199.59375 614.554688 197.605469 615.105469 195.605469 615.605469 C 193.605469 616.105469 191.59375 616.558594 189.570312 616.960938 C 187.546875 617.363281 185.515625 617.714844 183.472656 618.019531 C 181.433594 618.320312 179.386719 618.574219 177.332031 618.777344 C 175.28125 618.976562 173.222656 619.128906 171.164062 619.230469 C 169.101562 619.332031 167.042969 619.382812 164.976562 619.382812 C 162.914062 619.382812 160.855469 619.332031 158.792969 619.230469 C 156.734375 619.128906 154.675781 618.976562 152.625 618.777344 C 150.570312 618.574219 148.523438 618.320312 146.484375 618.019531 C 144.441406 617.714844 142.410156 617.363281 140.386719 616.960938 C 138.363281 616.558594 136.351562 616.105469 134.351562 615.605469 C 132.351562 615.105469 130.363281 614.554688 128.386719 613.953125 C 126.414062 613.355469 124.457031 612.710938 122.515625 612.015625 C 120.570312 611.320312 118.648438 610.578125 116.742188 609.789062 C 114.835938 609 112.949219 608.164062 111.085938 607.28125 C 109.222656 606.398438 107.378906 605.472656 105.558594 604.5 C 103.738281 603.527344 101.945312 602.511719 100.175781 601.449219 C 98.40625 600.390625 96.664062 599.285156 94.949219 598.140625 C 93.234375 596.992188 91.546875 595.804688 89.890625 594.578125 C 88.234375 593.347656 86.609375 592.078125 85.015625 590.769531 C 83.417969 589.460938 81.859375 588.117188 80.328125 586.730469 C 78.800781 585.34375 77.308594 583.921875 75.847656 582.464844 C 74.390625 581.003906 72.96875 579.511719 71.582031 577.984375 C 70.195312 576.453125 68.851562 574.894531 67.542969 573.296875 C 66.234375 571.703125 64.964844 570.078125 63.734375 568.421875 C 62.507812 566.765625 61.320312 565.078125 60.171875 563.363281 C 59.027344 561.648438 57.921875 559.90625 56.863281 558.136719 C 55.800781 556.367188 54.785156 554.574219 53.8125 552.753906 C 52.839844 550.933594 51.914062 549.089844 51.03125 547.226562 C 50.148438 545.363281 49.3125 543.476562 48.523438 541.570312 C 47.734375 539.664062 46.992188 537.742188 46.296875 535.796875 C 45.601562 533.855469 44.957031 531.898438 44.355469 529.925781 C 43.757812 527.949219 43.207031 525.960938 42.707031 523.960938 C 42.207031 521.960938 41.753906 519.949219 41.351562 517.925781 C 40.949219 515.902344 40.597656 513.871094 40.292969 511.828125 C 39.992188 509.789062 39.738281 507.742188 39.535156 505.6875 C 39.335938 503.636719 39.183594 501.578125 39.082031 499.519531 C 38.980469 497.457031 38.929688 495.398438 38.929688 493.335938 Z M 618.753906 707.617188 C 618.753906 709.679688 618.652344 711.738281 618.449219 713.792969 C 618.246094 715.847656 617.945312 717.886719 617.542969 719.910156 C 617.136719 721.9375 616.636719 723.9375 616.039062 725.910156 C 615.4375 727.886719 614.746094 729.828125 613.953125 731.734375 C 613.164062 733.640625 612.285156 735.503906 611.308594 737.324219 C 610.335938 739.144531 609.277344 740.914062 608.128906 742.628906 C 606.984375 744.347656 605.757812 746.003906 604.445312 747.597656 C 603.136719 749.195312 601.753906 750.722656 600.292969 752.179688 C 598.832031 753.640625 597.304688 755.027344 595.710938 756.335938 C 594.113281 757.644531 592.457031 758.871094 590.742188 760.019531 C 589.027344 761.164062 587.257812 762.226562 585.4375 763.199219 C 583.617188 764.171875 581.753906 765.054688 579.847656 765.84375 C 577.941406 766.632812 576 767.328125 574.023438 767.925781 C 572.046875 768.527344 570.046875 769.027344 568.023438 769.429688 C 566 769.832031 563.960938 770.136719 561.90625 770.335938 C 559.851562 770.539062 557.792969 770.640625 555.726562 770.640625 L 253.210938 770.640625 C 251.148438 770.640625 249.089844 770.539062 247.035156 770.335938 C 244.980469 770.136719 242.941406 769.832031 240.917969 769.429688 C 238.890625 769.027344 236.890625 768.527344 234.917969 767.925781 C 232.941406 767.328125 231 766.632812 229.09375 765.84375 C 227.1875 765.054688 225.324219 764.171875 223.503906 763.199219 C 221.683594 762.226562 219.914062 761.164062 218.199219 760.019531 C 216.480469 758.871094 214.824219 757.644531 213.230469 756.335938 C 211.632812 755.027344 210.105469 753.640625 208.648438 752.179688 C 207.1875 750.722656 205.804688 749.195312 204.492188 747.597656 C 203.183594 746.003906 201.957031 744.347656 200.808594 742.628906 C 199.664062 740.914062 198.601562 739.144531 197.628906 737.324219 C 196.65625 735.503906 195.773438 733.640625 194.984375 731.734375 C 194.195312 729.828125 193.5 727.886719 192.902344 725.910156 C 192.300781 723.9375 191.800781 721.9375 191.398438 719.910156 C 190.996094 717.886719 190.695312 715.847656 190.492188 713.792969 C 190.289062 711.738281 190.1875 709.679688 190.1875 707.617188 L 190.1875 642.324219 C 198.78125 640.863281 207.183594 638.679688 215.398438 635.769531 L 215.398438 695.011719 C 215.398438 696.664062 215.476562 698.308594 215.640625 699.953125 C 215.800781 701.597656 216.042969 703.226562 216.367188 704.847656 C 216.6875 706.46875 217.089844 708.066406 217.570312 709.648438 C 218.046875 711.226562 218.605469 712.78125 219.234375 714.304688 C 219.867188 715.832031 220.574219 717.324219 221.351562 718.777344 C 222.128906 720.234375 222.976562 721.648438 223.894531 723.023438 C 224.8125 724.394531 225.792969 725.722656 226.84375 726.996094 C 227.890625 728.273438 228.996094 729.496094 230.164062 730.664062 C 231.332031 731.832031 232.554688 732.9375 233.832031 733.988281 C 235.109375 735.035156 236.433594 736.015625 237.804688 736.933594 C 239.179688 737.851562 240.59375 738.699219 242.050781 739.476562 C 243.503906 740.257812 244.996094 740.960938 246.523438 741.59375 C 248.046875 742.226562 249.601562 742.78125 251.179688 743.261719 C 252.761719 743.738281 254.359375 744.140625 255.980469 744.460938 C 257.601562 744.785156 259.230469 745.027344 260.875 745.1875 C 262.519531 745.351562 264.164062 745.429688 265.816406 745.429688 L 543.125 745.429688 C 544.773438 745.429688 546.421875 745.351562 548.066406 745.1875 C 549.707031 745.027344 551.339844 744.785156 552.960938 744.460938 C 554.578125 744.140625 556.179688 743.738281 557.757812 743.261719 C 559.339844 742.78125 560.890625 742.226562 562.417969 741.59375 C 563.945312 740.960938 565.433594 740.257812 566.890625 739.476562 C 568.347656 738.699219 569.761719 737.851562 571.132812 736.933594 C 572.507812 736.015625 573.832031 735.035156 575.109375 733.988281 C 576.386719 732.9375 577.609375 731.832031 578.773438 730.664062 C 579.941406 729.496094 581.050781 728.273438 582.097656 726.996094 C 583.144531 725.722656 584.128906 724.394531 585.046875 723.023438 C 585.960938 721.648438 586.8125 720.234375 587.589844 718.777344 C 588.367188 717.324219 589.074219 715.832031 589.703125 714.304688 C 590.335938 712.78125 590.890625 711.226562 591.371094 709.648438 C 591.851562 708.066406 592.25 706.46875 592.574219 704.847656 C 592.894531 703.226562 593.136719 701.597656 593.300781 699.953125 C 593.460938 698.308594 593.542969 696.664062 593.542969 695.011719 L 593.542969 446.824219 C 601.765625 449.703125 610.167969 451.886719 618.753906 453.375 Z M 643.960938 430.308594 C 637.523438 430.316406 631.121094 429.828125 624.757812 428.847656 C 618.394531 427.867188 612.144531 426.402344 606.003906 424.457031 C 599.867188 422.511719 593.914062 420.105469 588.148438 417.238281 C 582.382812 414.375 576.871094 411.085938 571.609375 407.371094 C 569.414062 405.832031 566.980469 405.03125 564.300781 404.972656 C 562.574219 404.972656 560.933594 405.351562 559.382812 406.109375 L 532.03125 417.707031 L 544.636719 392.496094 C 545.078125 391.472656 545.378906 390.410156 545.539062 389.304688 C 545.703125 388.203125 545.714844 387.097656 545.582031 385.988281 C 545.449219 384.882812 545.175781 383.8125 544.757812 382.777344 C 544.339844 381.742188 543.796875 380.78125 543.125 379.890625 C 539.03125 374.488281 535.410156 368.785156 532.25 362.789062 C 529.089844 356.792969 526.441406 350.578125 524.296875 344.148438 C 522.152344 337.71875 520.546875 331.160156 519.476562 324.464844 C 518.40625 317.773438 517.882812 311.039062 517.914062 304.261719 C 517.914062 302.199219 517.964844 300.136719 518.066406 298.078125 C 518.167969 296.015625 518.320312 293.960938 518.519531 291.90625 C 518.722656 289.855469 518.976562 287.808594 519.277344 285.765625 C 519.582031 283.726562 519.933594 281.695312 520.335938 279.671875 C 520.738281 277.648438 521.191406 275.636719 521.691406 273.632812 C 522.191406 271.632812 522.742188 269.644531 523.339844 267.671875 C 523.941406 265.699219 524.585938 263.738281 525.28125 261.796875 C 525.976562 259.855469 526.71875 257.929688 527.507812 256.023438 C 528.296875 254.121094 529.132812 252.234375 530.015625 250.367188 C 530.898438 248.503906 531.824219 246.664062 532.796875 244.84375 C 533.769531 243.023438 534.785156 241.230469 535.847656 239.460938 C 536.90625 237.691406 538.011719 235.949219 539.15625 234.234375 C 540.300781 232.519531 541.488281 230.832031 542.71875 229.175781 C 543.949219 227.519531 545.214844 225.890625 546.523438 224.296875 C 547.832031 222.703125 549.179688 221.140625 550.566406 219.613281 C 551.953125 218.085938 553.375 216.589844 554.832031 215.132812 C 556.292969 213.671875 557.785156 212.25 559.3125 210.867188 C 560.839844 209.480469 562.402344 208.132812 563.996094 206.824219 C 565.59375 205.515625 567.21875 204.246094 568.875 203.019531 C 570.53125 201.789062 572.21875 200.601562 573.933594 199.457031 C 575.648438 198.308594 577.390625 197.207031 579.160156 196.144531 C 580.929688 195.085938 582.722656 194.070312 584.542969 193.097656 C 586.363281 192.125 588.203125 191.199219 590.070312 190.316406 C 591.933594 189.433594 593.820312 188.597656 595.726562 187.808594 C 597.632812 187.019531 599.554688 186.277344 601.496094 185.582031 C 603.441406 184.886719 605.398438 184.238281 607.371094 183.640625 C 609.347656 183.042969 611.332031 182.492188 613.335938 181.992188 C 615.335938 181.488281 617.347656 181.039062 619.371094 180.636719 C 621.394531 180.234375 623.425781 179.878906 625.46875 179.578125 C 627.507812 179.273438 629.554688 179.023438 631.605469 178.820312 C 633.660156 178.617188 635.714844 178.464844 637.777344 178.363281 C 639.835938 178.265625 641.898438 178.214844 643.960938 178.214844 C 646.023438 178.214844 648.085938 178.265625 650.148438 178.363281 C 652.207031 178.464844 654.265625 178.617188 656.316406 178.820312 C 658.371094 179.023438 660.417969 179.273438 662.457031 179.578125 C 664.496094 179.878906 666.53125 180.234375 668.554688 180.636719 C 670.574219 181.039062 672.589844 181.488281 674.589844 181.992188 C 676.589844 182.492188 678.578125 183.042969 680.550781 183.640625 C 682.527344 184.238281 684.484375 184.886719 686.425781 185.582031 C 688.367188 186.277344 690.292969 187.019531 692.199219 187.808594 C 694.105469 188.597656 695.988281 189.433594 697.855469 190.316406 C 699.71875 191.199219 701.5625 192.125 703.378906 193.097656 C 705.199219 194.070312 706.996094 195.085938 708.765625 196.144531 C 710.53125 197.207031 712.277344 198.308594 713.992188 199.457031 C 715.707031 200.601562 717.390625 201.789062 719.050781 203.019531 C 720.707031 204.246094 722.332031 205.515625 723.925781 206.824219 C 725.519531 208.132812 727.082031 209.480469 728.609375 210.867188 C 730.140625 212.25 731.632812 213.671875 733.089844 215.132812 C 734.550781 216.589844 735.972656 218.085938 737.359375 219.613281 C 738.742188 221.140625 740.089844 222.703125 741.398438 224.296875 C 742.707031 225.890625 743.976562 227.519531 745.203125 229.175781 C 746.433594 230.832031 747.621094 232.519531 748.765625 234.234375 C 749.914062 235.949219 751.015625 237.691406 752.078125 239.460938 C 753.136719 241.230469 754.15625 243.023438 755.125 244.84375 C 756.097656 246.664062 757.027344 248.503906 757.910156 250.367188 C 758.789062 252.234375 759.625 254.121094 760.414062 256.023438 C 761.203125 257.929688 761.945312 259.855469 762.640625 261.796875 C 763.335938 263.738281 763.984375 265.699219 764.582031 267.671875 C 765.179688 269.644531 765.730469 271.632812 766.234375 273.632812 C 766.734375 275.636719 767.1875 277.648438 767.589844 279.671875 C 767.992188 281.695312 768.34375 283.726562 768.644531 285.765625 C 768.949219 287.808594 769.203125 289.855469 769.402344 291.90625 C 769.605469 293.960938 769.757812 296.015625 769.859375 298.078125 C 769.960938 300.136719 770.011719 302.199219 770.011719 304.261719 C 770.011719 306.324219 769.960938 308.386719 769.859375 310.445312 C 769.757812 312.507812 769.605469 314.5625 769.402344 316.617188 C 769.203125 318.667969 768.949219 320.714844 768.644531 322.757812 C 768.34375 324.796875 767.992188 326.828125 767.589844 328.851562 C 767.1875 330.875 766.734375 332.886719 766.234375 334.890625 C 765.730469 336.890625 765.179688 338.878906 764.582031 340.851562 C 763.984375 342.824219 763.335938 344.785156 762.640625 346.726562 C 761.945312 348.667969 761.203125 350.59375 760.414062 352.5 C 759.625 354.402344 758.789062 356.289062 757.910156 358.152344 C 757.027344 360.019531 756.097656 361.859375 755.125 363.679688 C 754.15625 365.5 753.136719 367.292969 752.078125 369.0625 C 751.015625 370.832031 749.914062 372.574219 748.765625 374.289062 C 747.621094 376.003906 746.433594 377.691406 745.203125 379.347656 C 743.976562 381.003906 742.707031 382.632812 741.398438 384.226562 C 740.089844 385.820312 738.742188 387.382812 737.359375 388.910156 C 735.972656 390.4375 734.550781 391.933594 733.089844 393.390625 C 731.632812 394.851562 730.140625 396.273438 728.609375 397.65625 C 727.082031 399.042969 725.519531 400.390625 723.925781 401.699219 C 722.332031 403.007812 720.707031 404.277344 719.050781 405.503906 C 717.390625 406.734375 715.707031 407.921875 713.992188 409.066406 C 712.277344 410.214844 710.53125 411.316406 708.765625 412.378906 C 706.996094 413.4375 705.199219 414.453125 703.378906 415.425781 C 701.5625 416.398438 699.71875 417.324219 697.855469 418.207031 C 695.988281 419.089844 694.105469 419.925781 692.199219 420.714844 C 690.292969 421.503906 688.367188 422.246094 686.425781 422.941406 C 684.484375 423.636719 682.527344 424.285156 680.550781 424.882812 C 678.578125 425.480469 676.589844 426.03125 674.589844 426.53125 C 672.589844 427.035156 670.574219 427.484375 668.554688 427.886719 C 666.53125 428.289062 664.496094 428.644531 662.457031 428.945312 C 660.417969 429.25 658.371094 429.5 656.316406 429.703125 C 654.265625 429.90625 652.207031 430.058594 650.148438 430.160156 C 648.085938 430.257812 646.023438 430.308594 643.960938 430.308594 Z M 643.960938 430.308594 " fill-opacity="1" fill-rule="nonzero"/></g><path fill="#d06150" d="M 708.878906 276.910156 L 671.945312 271.238281 L 655.433594 235.945312 C 654.929688 234.84375 654.285156 233.835938 653.492188 232.921875 C 652.703125 232.007812 651.796875 231.222656 650.78125 230.570312 C 649.765625 229.914062 648.675781 229.417969 647.515625 229.074219 C 646.355469 228.734375 645.171875 228.566406 643.960938 228.566406 C 642.753906 228.566406 641.566406 228.734375 640.40625 229.074219 C 639.25 229.417969 638.160156 229.914062 637.144531 230.570312 C 636.125 231.222656 635.222656 232.007812 634.429688 232.921875 C 633.640625 233.835938 632.992188 234.84375 632.492188 235.945312 L 615.980469 271.238281 L 579.046875 276.910156 C 577.898438 277.082031 576.796875 277.40625 575.738281 277.878906 C 574.679688 278.355469 573.707031 278.96875 572.816406 279.710938 C 571.925781 280.457031 571.15625 281.308594 570.5 282.265625 C 569.847656 283.226562 569.332031 284.253906 568.964844 285.355469 C 568.613281 286.4375 568.414062 287.546875 568.363281 288.6875 C 568.316406 289.824219 568.417969 290.949219 568.671875 292.058594 C 568.929688 293.167969 569.328125 294.222656 569.867188 295.222656 C 570.410156 296.226562 571.074219 297.136719 571.863281 297.960938 L 598.960938 325.691406 L 592.535156 365.015625 C 592.394531 366.164062 592.410156 367.3125 592.585938 368.457031 C 592.761719 369.601562 593.089844 370.699219 593.566406 371.753906 C 594.046875 372.808594 594.65625 373.777344 595.402344 374.664062 C 596.148438 375.546875 597 376.316406 597.957031 376.96875 C 598.914062 377.617188 599.941406 378.128906 601.039062 378.496094 C 602.136719 378.863281 603.261719 379.078125 604.417969 379.136719 C 605.574219 379.191406 606.714844 379.09375 607.84375 378.835938 C 608.972656 378.578125 610.046875 378.175781 611.0625 377.621094 L 643.960938 360.101562 L 676.859375 378.378906 C 678.75 379.398438 680.765625 379.902344 682.910156 379.890625 C 685.589844 379.910156 688.027344 379.15625 690.222656 377.621094 C 691.210938 376.929688 692.082031 376.113281 692.835938 375.167969 C 693.589844 374.226562 694.199219 373.195312 694.65625 372.078125 C 695.113281 370.960938 695.40625 369.800781 695.53125 368.601562 C 695.65625 367.398438 695.609375 366.203125 695.390625 365.015625 L 688.960938 325.691406 L 716.0625 297.960938 C 716.851562 297.136719 717.515625 296.226562 718.054688 295.222656 C 718.597656 294.222656 718.996094 293.167969 719.25 292.058594 C 719.507812 290.949219 719.609375 289.824219 719.558594 288.6875 C 719.511719 287.546875 719.3125 286.4375 718.960938 285.355469 C 718.589844 284.253906 718.078125 283.226562 717.425781 282.265625 C 716.769531 281.308594 715.996094 280.457031 715.109375 279.710938 C 714.21875 278.96875 713.246094 278.355469 712.1875 277.878906 C 711.128906 277.40625 710.023438 277.082031 708.878906 276.910156 Z M 666.398438 312.832031 C 665.710938 313.539062 665.113281 314.316406 664.609375 315.164062 C 664.101562 316.011719 663.703125 316.90625 663.40625 317.847656 C 663.109375 318.789062 662.929688 319.753906 662.859375 320.738281 C 662.789062 321.71875 662.835938 322.699219 662.996094 323.671875 L 666.273438 343.714844 L 650.011719 334.765625 C 649.054688 334.210938 648.039062 333.792969 646.972656 333.507812 C 645.902344 333.21875 644.816406 333.078125 643.710938 333.078125 C 642.605469 333.078125 641.515625 333.21875 640.449219 333.507812 C 639.378906 333.792969 638.367188 334.210938 637.40625 334.765625 L 621.148438 343.714844 L 624.425781 323.671875 C 624.585938 322.699219 624.628906 321.71875 624.5625 320.738281 C 624.492188 319.753906 624.308594 318.789062 624.011719 317.847656 C 623.71875 316.90625 623.316406 316.011719 622.8125 315.164062 C 622.304688 314.316406 621.710938 313.539062 621.019531 312.832031 L 606.652344 298.085938 L 625.9375 295.1875 C 626.953125 295.027344 627.933594 294.75 628.882812 294.351562 C 629.832031 293.953125 630.71875 293.445312 631.539062 292.832031 C 632.363281 292.214844 633.101562 291.511719 633.753906 290.714844 C 634.40625 289.917969 634.949219 289.058594 635.390625 288.128906 L 643.960938 270.859375 L 652.027344 288.128906 C 652.46875 289.058594 653.015625 289.917969 653.667969 290.714844 C 654.316406 291.511719 655.054688 292.214844 655.878906 292.832031 C 656.703125 293.445312 657.589844 293.953125 658.535156 294.351562 C 659.484375 294.75 660.464844 295.027344 661.484375 295.1875 L 680.769531 298.085938 Z M 666.398438 312.832031 " fill-opacity="1" fill-rule="nonzero"/><path fill="#d06150" d="M 197.875 567.449219 C 199.765625 568.46875 201.78125 568.972656 203.925781 568.964844 C 206.605469 568.984375 209.042969 568.226562 211.238281 566.695312 C 212.226562 566 213.097656 565.183594 213.851562 564.242188 C 214.605469 563.296875 215.214844 562.269531 215.671875 561.148438 C 216.128906 560.03125 216.421875 558.875 216.546875 557.671875 C 216.671875 556.472656 216.625 555.277344 216.40625 554.089844 L 209.976562 514.761719 L 237.078125 487.03125 C 237.867188 486.210938 238.53125 485.296875 239.074219 484.296875 C 239.613281 483.296875 240.011719 482.238281 240.265625 481.128906 C 240.523438 480.019531 240.625 478.894531 240.578125 477.757812 C 240.527344 476.621094 240.328125 475.511719 239.976562 474.425781 C 239.605469 473.328125 239.09375 472.296875 238.441406 471.339844 C 237.785156 470.382812 237.011719 469.53125 236.125 468.785156 C 235.234375 468.039062 234.261719 467.429688 233.203125 466.953125 C 232.144531 466.476562 231.039062 466.152344 229.894531 465.980469 L 192.960938 460.308594 L 176.449219 425.015625 C 175.949219 423.914062 175.300781 422.910156 174.511719 421.992188 C 173.71875 421.078125 172.816406 420.296875 171.796875 419.640625 C 170.78125 418.988281 169.691406 418.488281 168.53125 418.148438 C 167.371094 417.808594 166.1875 417.636719 164.976562 417.636719 C 163.769531 417.636719 162.585938 417.808594 161.425781 418.148438 C 160.265625 418.488281 159.175781 418.988281 158.160156 419.640625 C 157.140625 420.296875 156.238281 421.078125 155.445312 421.992188 C 154.65625 422.910156 154.007812 423.914062 153.507812 425.015625 L 136.996094 460.308594 L 100.0625 465.980469 C 98.914062 466.152344 97.8125 466.476562 96.753906 466.953125 C 95.695312 467.429688 94.722656 468.039062 93.832031 468.785156 C 92.941406 469.53125 92.171875 470.382812 91.515625 471.339844 C 90.863281 472.296875 90.351562 473.328125 89.980469 474.425781 C 89.628906 475.511719 89.429688 476.621094 89.378906 477.757812 C 89.332031 478.894531 89.433594 480.019531 89.6875 481.128906 C 89.945312 482.238281 90.34375 483.296875 90.882812 484.296875 C 91.425781 485.296875 92.089844 486.210938 92.878906 487.03125 L 119.980469 514.761719 L 113.550781 554.089844 C 113.410156 555.238281 113.425781 556.386719 113.601562 557.527344 C 113.777344 558.671875 114.105469 559.773438 114.582031 560.828125 C 115.0625 561.878906 115.671875 562.851562 116.417969 563.734375 C 117.164062 564.621094 118.015625 565.390625 118.972656 566.039062 C 119.929688 566.691406 120.957031 567.199219 122.054688 567.570312 C 123.152344 567.9375 124.277344 568.148438 125.433594 568.207031 C 126.589844 568.265625 127.734375 568.164062 128.859375 567.910156 C 129.988281 567.652344 131.0625 567.246094 132.078125 566.695312 L 164.976562 549.171875 Z M 142.667969 532.789062 L 145.945312 512.746094 C 146.105469 511.773438 146.152344 510.792969 146.082031 509.808594 C 146.011719 508.824219 145.828125 507.863281 145.535156 506.921875 C 145.238281 505.980469 144.835938 505.085938 144.332031 504.238281 C 143.828125 503.390625 143.230469 502.613281 142.542969 501.90625 L 128.171875 487.15625 L 147.457031 484.257812 C 148.472656 484.101562 149.457031 483.824219 150.402344 483.425781 C 151.351562 483.027344 152.238281 482.519531 153.0625 481.902344 C 153.886719 481.289062 154.621094 480.582031 155.273438 479.789062 C 155.925781 478.992188 156.472656 478.128906 156.910156 477.199219 L 164.976562 459.929688 L 173.046875 477.199219 C 173.484375 478.128906 174.03125 478.992188 174.683594 479.789062 C 175.332031 480.582031 176.070312 481.289062 176.894531 481.902344 C 177.71875 482.519531 178.605469 483.027344 179.554688 483.425781 C 180.5 483.824219 181.484375 484.101562 182.5 484.257812 L 201.785156 487.15625 L 187.414062 501.90625 C 186.726562 502.613281 186.128906 503.390625 185.625 504.238281 C 185.117188 505.085938 184.71875 505.980469 184.421875 506.921875 C 184.125 507.863281 183.945312 508.824219 183.875 509.808594 C 183.804688 510.792969 183.851562 511.773438 184.011719 512.746094 L 187.289062 532.789062 L 171.027344 523.839844 C 170.070312 523.285156 169.058594 522.863281 167.988281 522.578125 C 166.917969 522.292969 165.832031 522.148438 164.726562 522.148438 C 163.621094 522.148438 162.53125 522.292969 161.464844 522.578125 C 160.394531 522.863281 159.382812 523.285156 158.421875 523.839844 Z M 142.667969 532.789062 " fill-opacity="1" fill-rule="nonzero"/><path fill="#d06150" d="M 341.445312 342.078125 L 366.65625 342.078125 L 366.65625 367.285156 L 341.445312 367.285156 Z M 341.445312 342.078125 " fill-opacity="1" fill-rule="nonzero"/><path fill="#d06150" d="M 391.867188 342.078125 L 417.074219 342.078125 L 417.074219 367.285156 L 391.867188 367.285156 Z M 391.867188 342.078125 " fill-opacity="1" fill-rule="nonzero"/><path fill="#d06150" d="M 391.867188 430.308594 L 417.074219 430.308594 L 417.074219 455.519531 L 391.867188 455.519531 Z M 391.867188 430.308594 " fill-opacity="1" fill-rule="nonzero"/><path fill="#d06150" d="M 442.285156 430.308594 L 467.496094 430.308594 L 467.496094 455.519531 L 442.285156 455.519531 Z M 442.285156 430.308594 " fill-opacity="1" fill-rule="nonzero"/></svg>