<svg xmlns="http://www.w3.org/2000/svg" xmlns:xlink="http://www.w3.org/1999/xlink" width="1080" zoomAndPan="magnify" viewBox="0 0 810 809.999993" height="1080" preserveAspectRatio="xMidYMid meet" version="1.0"><defs><clipPath id="824825f015"><path d="M 217 50.808594 L 788 50.808594 L 788 436 L 217 436 Z M 217 50.808594 " clip-rule="nonzero"/></clipPath><clipPath id="ca7671be23"><path d="M 0 444 L 806 444 L 806 759.558594 L 0 759.558594 Z M 0 444 " clip-rule="nonzero"/></clipPath></defs><rect x="-81" width="972" fill="#ffffff" y="-80.999999" height="971.999992" fill-opacity="1"/><rect x="-81" width="972" fill="#ffffff" y="-80.999999" height="971.999992" fill-opacity="1"/><rect x="-81" width="972" fill="#fff4de" y="-80.999999" height="971.999992" fill-opacity="1"/><g clip-path="url(#824825f015)"><path fill="#d06150" d="M 217.339844 282.8125 L 217.339844 335.292969 C 217.339844 342.765625 223.449219 348.882812 230.917969 348.882812 L 340.578125 348.882812 C 339.898438 354.996094 339.5625 361.28125 339.5625 367.5625 L 339.5625 421.914062 C 339.5625 429.386719 345.671875 435.5 353.140625 435.5 L 651.902344 435.5 C 659.375 435.5 665.484375 429.386719 665.484375 421.914062 L 665.484375 367.5625 C 665.484375 361.28125 665.144531 354.996094 664.464844 348.882812 L 774.125 348.882812 C 781.59375 348.882812 787.707031 342.765625 787.707031 335.292969 L 787.707031 282.8125 C 787.707031 231.691406 754.433594 188.382812 708.433594 173.09375 C 721.332031 160.1875 729.140625 142.355469 729.140625 122.652344 C 729.140625 83.078125 696.886719 50.808594 657.335938 50.808594 C 618.632812 50.808594 587.058594 81.550781 585.53125 119.765625 C 576.023438 80.191406 540.378906 50.808594 497.9375 50.808594 C 457.707031 50.808594 423.585938 77.132812 411.875 113.652344 C 407.460938 78.324219 377.246094 50.808594 340.75 50.808594 C 301.195312 50.808594 268.945312 83.078125 268.945312 122.652344 C 268.945312 143.203125 277.601562 161.886719 291.691406 174.964844 C 248.234375 191.609375 217.339844 233.730469 217.339844 282.8125 Z M 760.546875 282.8125 L 760.546875 321.707031 L 658.863281 321.707031 C 646.8125 280.605469 618.972656 246.128906 582.304688 225.40625 C 598.941406 205.875 623.386719 194.324219 649.527344 194.324219 L 672.273438 194.324219 C 720.992188 194.496094 760.546875 234.070312 760.546875 282.8125 Z M 657.335938 77.984375 C 681.949219 77.984375 701.980469 98.023438 701.980469 122.652344 C 701.980469 147.277344 681.949219 167.320312 657.335938 167.320312 C 632.722656 167.320312 612.691406 147.277344 612.691406 122.652344 C 612.691406 98.023438 632.722656 77.984375 657.335938 77.984375 Z M 588.246094 142.015625 C 591.8125 154.753906 598.773438 166.132812 608.277344 174.964844 C 588.078125 182.777344 570.253906 196.023438 557.011719 213.855469 C 555.824219 213.347656 554.636719 213.007812 553.449219 212.667969 C 574.328125 196.195312 588.078125 170.71875 588.246094 142.015625 Z M 497.9375 77.984375 C 532.738281 77.984375 561.257812 106.347656 561.257812 141.335938 C 561.257812 176.320312 532.90625 204.6875 497.9375 204.6875 C 462.96875 204.6875 434.621094 176.152344 434.621094 141.335938 C 434.621094 106.515625 462.96875 77.984375 497.9375 77.984375 Z M 502.523438 231.691406 C 577.382812 231.691406 638.324219 292.664062 638.324219 367.5625 L 638.324219 408.328125 L 366.722656 408.328125 L 366.722656 367.5625 C 366.722656 292.664062 427.660156 231.691406 502.523438 231.691406 Z M 407.800781 147.957031 C 408.820312 162.054688 413.0625 175.304688 419.851562 186.851562 C 411.195312 180.90625 401.691406 176.320312 391.675781 173.09375 C 398.632812 165.960938 404.234375 157.46875 407.800781 147.957031 Z M 340.578125 77.984375 C 365.191406 77.984375 385.222656 98.023438 385.222656 122.652344 C 385.222656 147.277344 365.191406 167.320312 340.578125 167.320312 C 315.964844 167.320312 295.933594 147.277344 295.933594 122.652344 C 295.933594 98.023438 315.964844 77.984375 340.578125 77.984375 Z M 332.769531 194.496094 L 355.515625 194.496094 C 381.660156 194.496094 405.933594 205.875 422.738281 225.578125 C 386.074219 246.296875 358.234375 280.773438 346.179688 321.875 L 244.5 321.875 L 244.5 282.984375 C 244.5 234.070312 284.050781 194.496094 332.769531 194.496094 Z M 332.769531 194.496094 " fill-opacity="1" fill-rule="nonzero"/></g><g clip-path="url(#ca7671be23)"><path fill="#d06150" d="M 126.351562 444.84375 L 13.636719 444.84375 C 6.167969 444.84375 0.0585938 450.957031 0.0585938 458.429688 L 0.0585938 709.796875 C 0.0585938 717.269531 6.167969 723.382812 13.636719 723.382812 L 126.351562 723.382812 C 133.820312 723.382812 139.933594 717.269531 139.933594 709.796875 L 139.933594 688.226562 L 194.253906 688.226562 L 355.347656 739.347656 C 391.84375 752.933594 422.570312 759.558594 453.125 759.558594 C 483.851562 759.558594 514.574219 752.765625 551.242188 739.179688 C 552.597656 738.667969 553.957031 737.988281 555.144531 736.96875 L 791.101562 544.371094 C 791.78125 543.691406 792.457031 543.011719 793.136719 542.332031 C 809.941406 521.441406 809.09375 489.511719 791.101562 469.640625 C 773.277344 449.769531 744.589844 447.730469 724.558594 465.054688 L 606.75 560.335938 C 606.75 559.144531 606.75 557.957031 606.75 556.769531 C 606.242188 528.40625 584.003906 505.136719 557.011719 505.136719 L 426.132812 505.136719 C 418.664062 505.136719 411.535156 500.71875 407.121094 493.417969 C 406.101562 491.886719 404.914062 490.53125 403.386719 489.339844 C 347.878906 449.089844 277.769531 441.445312 216.152344 468.960938 L 193.402344 479.148438 L 139.933594 479.148438 L 139.933594 458.429688 C 139.933594 450.957031 133.992188 444.84375 126.351562 444.84375 Z M 67.957031 675.828125 C 60.488281 675.828125 54.378906 669.710938 54.378906 662.238281 C 54.378906 654.765625 60.488281 648.652344 67.957031 648.652344 C 75.425781 648.652344 81.539062 654.765625 81.539062 662.238281 C 81.539062 669.710938 75.425781 675.828125 67.957031 675.828125 Z M 112.773438 492.90625 L 112.773438 696.207031 L 90.535156 696.207031 C 101.398438 688.90625 108.699219 676.507812 108.699219 662.238281 C 108.699219 639.820312 90.363281 621.476562 67.957031 621.476562 C 45.550781 621.476562 27.21875 639.820312 27.21875 662.238281 C 27.21875 676.335938 34.515625 688.90625 45.378906 696.207031 L 27.21875 696.207031 L 27.21875 472.015625 L 112.773438 472.015625 Z M 196.460938 506.496094 C 198.328125 506.496094 200.195312 506.15625 201.890625 505.304688 L 227.355469 493.925781 C 279.296875 470.828125 338.203125 476.941406 385.5625 510.0625 C 395.070312 524.160156 410.007812 532.3125 426.304688 532.3125 L 557.183594 532.3125 C 569.40625 532.3125 579.589844 543.519531 579.757812 557.109375 C 579.929688 564.75 577.214844 571.882812 572.289062 576.808594 C 569.914062 579.1875 567.027344 581.054688 564.140625 582.074219 C 560.238281 582.753906 556.332031 583.09375 552.429688 583.09375 L 406.78125 583.09375 C 399.3125 583.09375 393.203125 589.207031 393.203125 596.679688 C 393.203125 604.152344 399.3125 610.269531 406.78125 610.269531 L 558.539062 610.269531 C 562.613281 610.269531 566.6875 609.757812 570.59375 608.738281 C 587.566406 605.683594 603.523438 598.210938 617.613281 587 L 742.210938 486.113281 C 742.382812 485.945312 742.382812 485.945312 742.550781 485.773438 C 751.378906 478.132812 763.429688 479.148438 771.410156 487.8125 C 780.238281 497.492188 780.914062 513.628906 773.105469 524.328125 L 540.207031 714.550781 C 474.34375 738.667969 431.394531 738.328125 365.023438 713.703125 C 364.855469 713.703125 364.683594 713.53125 364.34375 713.53125 L 201.042969 661.558594 C 199.683594 661.222656 198.328125 660.882812 196.96875 660.882812 L 139.933594 660.882812 L 139.933594 506.324219 L 196.460938 506.324219 Z M 196.460938 506.496094 " fill-opacity="1" fill-rule="nonzero"/></g></svg>