<svg xmlns="http://www.w3.org/2000/svg" xmlns:xlink="http://www.w3.org/1999/xlink" width="1080" zoomAndPan="magnify" viewBox="0 0 810 809.999993" height="1080" preserveAspectRatio="xMidYMid meet" version="1.0"><defs><clipPath id="8af9752a54"><path d="M 1 64.800781 L 809 64.800781 L 809 745 L 1 745 Z M 1 64.800781 " clip-rule="nonzero"/></clipPath></defs><rect x="-81" width="972" fill="#ffffff" y="-80.999999" height="971.999992" fill-opacity="1"/><rect x="-81" width="972" fill="#ffffff" y="-80.999999" height="971.999992" fill-opacity="1"/><rect x="-81" width="972" fill="#fff4de" y="-80.999999" height="971.999992" fill-opacity="1"/><g clip-path="url(#8af9752a54)"><path fill="#d06150" d="M 803.800781 239.675781 L 643.09375 69.6875 C 640.121094 66.542969 635.980469 64.757812 631.648438 64.757812 L 178.351562 64.757812 C 174.019531 64.757812 169.882812 66.542969 166.90625 69.6875 L 6.199219 239.675781 C 0.785156 245.40625 0.441406 254.261719 5.402344 260.394531 L 392.757812 739.09375 C 395.746094 742.789062 400.246094 744.933594 405 744.933594 C 409.75 744.933594 414.25 742.789062 417.238281 739.09375 L 804.59375 260.394531 C 809.558594 254.261719 809.214844 245.40625 803.800781 239.675781 Z M 173.253906 108.8125 L 226.65625 234.746094 L 54.195312 234.746094 Z M 537.828125 266.234375 L 405 671.195312 L 272.167969 266.234375 Z M 286.382812 234.746094 L 405 106.199219 L 523.613281 234.746094 Z M 438.664062 96.246094 L 607.871094 96.246094 L 554.59375 221.882812 Z M 255.40625 221.882812 L 202.128906 96.246094 L 371.339844 96.246094 Z M 239.027344 266.234375 L 367.449219 657.753906 L 50.636719 266.234375 Z M 570.972656 266.234375 L 759.363281 266.234375 L 442.550781 657.753906 Z M 583.34375 234.746094 L 636.746094 108.8125 L 755.804688 234.746094 Z M 583.34375 234.746094 " fill-opacity="1" fill-rule="nonzero"/></g></svg>