<svg xmlns="http://www.w3.org/2000/svg" xmlns:xlink="http://www.w3.org/1999/xlink" viewBox="0,0,256,256" width="100px" height="100px" fill-rule="nonzero"><g fill="none" fill-rule="nonzero" stroke="none" stroke-width="1" stroke-linecap="butt" stroke-linejoin="miter" stroke-miterlimit="10" stroke-dasharray="" stroke-dashoffset="0" font-family="none" font-weight="none" font-size="none" text-anchor="none" style="mix-blend-mode: normal"><g transform="scale(2.56,2.56)"><path d="M87.215,56.71c1.135,-2.155 1.785,-4.605 1.785,-7.21c0,-6.621 -4.159,-12.257 -10.001,-14.478c0,-0.007 0.001,-0.014 0.001,-0.022c0,-11.598 -9.402,-21 -21,-21c-9.784,0 -17.981,6.701 -20.313,15.757c-1.476,-0.485 -3.049,-0.757 -4.687,-0.757c-7.692,0 -14.023,5.793 -14.89,13.252c-5.204,1.101 -9.11,5.717 -9.11,11.248c0,6.351 5.149,11.5 11.5,11.5c0.177,0 0.352,-0.012 0.526,-0.022c-0.004,0.175 -0.026,0.346 -0.026,0.522c0,11.322 9.178,20.5 20.5,20.5c6.437,0 12.175,-2.972 15.934,-7.614c2.178,2.225 5.206,3.614 8.566,3.614c4.65,0 8.674,-2.65 10.666,-6.518c1.052,0.335 2.171,0.518 3.334,0.518c6.075,0 11,-4.925 11,-11c0,-3.311 -1.47,-6.273 -3.785,-8.29z" fill="#fc7777"></path><path d="M34.5,40.5v0.5h3v-0.5c0,0 4.242,0 5.5,0c2.485,0 4.5,-2.015 4.5,-4.5c0,-2.333 -1.782,-4.229 -4.055,-4.455c0.022,-0.181 0.055,-0.358 0.055,-0.545c0,-2.485 -2.015,-4.5 -4.5,-4.5c-1.438,0 -2.703,0.686 -3.527,1.736c-0.14,-2.636 -2.302,-4.736 -4.973,-4.736c-2.761,0 -5,2.239 -5,5c0,0.446 0.077,0.87 0.187,1.282c-0.642,-0.777 -1.601,-1.282 -2.687,-1.282c-1.781,0 -3.234,1.335 -3.455,3.055c-0.181,-0.022 -0.358,-0.055 -0.545,-0.055c-2.485,0 -4.5,2.015 -4.5,4.5c0,2.485 2.015,4.5 4.5,4.5c2.485,0 9.5,0 9.5,0z" fill="#fdfcef"></path><path d="M30.5,23c-3.033,0 -5.5,2.467 -5.5,5.5c0,0.016 0,0.031 0,0.047c-0.602,-0.355 -1.29,-0.547 -2,-0.547c-1.831,0 -3.411,1.261 -3.858,3.005c-0.047,-0.003 -0.094,-0.005 -0.142,-0.005c-2.757,0 -5,2.243 -5,5c0,2.757 2.243,5 5,5h15.5c0.276,0 0.5,-0.224 0.5,-0.5c0,-0.276 -0.224,-0.5 -0.5,-0.5h-15.5c-2.206,0 -4,-1.794 -4,-4c0,-2.206 1.794,-4 4,-4c0.117,0 0.23,0.017 0.343,0.032l0.141,0.019c0.021,0.003 0.041,0.004 0.062,0.004c0.246,0 0.462,-0.185 0.495,-0.437c0.191,-1.493 1.463,-2.618 2.959,-2.618c0.885,0 1.723,0.401 2.301,1.1c0.098,0.118 0.241,0.182 0.386,0.182c0.078,0 0.156,-0.018 0.228,-0.056c0.209,-0.107 0.314,-0.346 0.254,-0.573c-0.115,-0.435 -0.169,-0.801 -0.169,-1.153c0,-2.481 2.019,-4.5 4.5,-4.5c2.381,0 4.347,1.872 4.474,4.263c0.011,0.208 0.15,0.387 0.349,0.45c0.05,0.016 0.101,0.024 0.152,0.024c0.15,0 0.296,-0.069 0.392,-0.192c0.771,-0.982 1.912,-1.545 3.133,-1.545c2.206,0 4,1.794 4,4c0,0.117 -0.017,0.23 -0.032,0.343l-0.019,0.141c-0.016,0.134 0.022,0.268 0.106,0.373c0.084,0.105 0.207,0.172 0.34,0.185c2.056,0.205 3.605,1.907 3.605,3.958c0,2.206 -1.794,4 -4,4h-5.5c-0.276,0 -0.5,0.224 -0.5,0.5c0,0.276 0.224,0.5 0.5,0.5h5.5c2.757,0 5,-2.243 5,-5c0,-2.397 -1.689,-4.413 -4.003,-4.877c0.002,-0.041 0.003,-0.082 0.003,-0.123c0,-2.757 -2.243,-5 -5,-5c-1.176,0 -2.293,0.416 -3.183,1.164c-0.598,-2.404 -2.762,-4.164 -5.317,-4.164z" fill="#472b29"></path><path d="M29,30c-1.403,0 -2.609,0.999 -2.913,2.341c-0.367,-0.222 -0.786,-0.341 -1.212,-0.341c-1.202,0 -2.198,0.897 -2.353,2.068c-0.203,-0.046 -0.396,-0.068 -0.585,-0.068c-1.529,0 -2.811,1.2 -2.918,2.732c-0.009,0.138 0.095,0.258 0.232,0.268c0.006,0 0.012,0 0.018,0c0.13,0 0.24,-0.101 0.249,-0.232c0.089,-1.271 1.151,-2.268 2.419,-2.268c0.229,0 0.47,0.042 0.738,0.127c0.022,0.007 0.045,0.01 0.067,0.01c0.055,0 0.11,-0.02 0.156,-0.054c0.064,-0.046 0.102,-0.128 0.102,-0.208c0,-1.034 0.841,-1.875 1.875,-1.875c0.447,0 0.885,0.168 1.231,0.473c0.047,0.041 0.106,0.063 0.165,0.063c0.032,0 0.063,-0.006 0.093,-0.019c0.088,-0.035 0.148,-0.117 0.155,-0.212c0.104,-1.293 1.193,-2.305 2.481,-2.305c0.208,0 0.425,0.034 0.682,0.107c0.023,0.007 0.047,0.01 0.07,0.01c0.109,0 0.207,-0.073 0.239,-0.182c0.038,-0.133 -0.039,-0.271 -0.172,-0.309c-0.302,-0.086 -0.563,-0.126 -0.819,-0.126z" fill="#472b29"></path><path d="M42.883,31.5c-1.326,0 -2.508,0.897 -2.874,2.182c-0.038,0.133 0.039,0.271 0.172,0.309c0.024,0.006 0.047,0.009 0.069,0.009c0.109,0 0.209,-0.072 0.24,-0.182c0.305,-1.07 1.289,-1.818 2.393,-1.818c0.117,0 0.23,0.014 0.342,0.029c0.012,0.002 0.023,0.003 0.035,0.003c0.121,0 0.229,-0.092 0.246,-0.217c0.019,-0.137 -0.077,-0.263 -0.214,-0.281c-0.134,-0.018 -0.27,-0.034 -0.409,-0.034z" fill="#472b29"></path><path d="M25.5,71h-10c-0.276,0 -0.5,-0.224 -0.5,-0.5c0,-0.276 0.224,-0.5 0.5,-0.5h10c0.276,0 0.5,0.224 0.5,0.5c0,0.276 -0.223,0.5 -0.5,0.5z" fill="#ffffff"></path><path d="M28.5,71h-1c-0.276,0 -0.5,-0.224 -0.5,-0.5c0,-0.276 0.224,-0.5 0.5,-0.5h1c0.276,0 0.5,0.224 0.5,0.5c0,0.276 -0.223,0.5 -0.5,0.5z" fill="#ffffff"></path><path d="M33.491,73h-8.991c-0.276,0 -0.5,-0.224 -0.5,-0.5c0,-0.276 0.224,-0.5 0.5,-0.5h8.991c0.276,0 0.5,0.224 0.5,0.5c0,0.276 -0.224,0.5 -0.5,0.5z" fill="#ffffff"></path><path d="M22.5,73h-1c-0.276,0 -0.5,-0.224 -0.5,-0.5c0,-0.276 0.224,-0.5 0.5,-0.5h1c0.276,0 0.5,0.224 0.5,0.5c0,0.276 -0.223,0.5 -0.5,0.5z" fill="#ffffff"></path><path d="M19.5,73h-2c-0.276,0 -0.5,-0.224 -0.5,-0.5c0,-0.276 0.224,-0.5 0.5,-0.5h2c0.276,0 0.5,0.224 0.5,0.5c0,0.276 -0.223,0.5 -0.5,0.5z" fill="#ffffff"></path><path d="M25.5,75h-2c-0.276,0 -0.5,-0.224 -0.5,-0.5c0,-0.276 0.224,-0.5 0.5,-0.5h2c0.276,0 0.5,0.224 0.5,0.5c0,0.276 -0.224,0.5 -0.5,0.5z" fill="#ffffff"></path><path d="M28.5,66c-0.177,0 -0.823,0 -1,0c-0.276,0 -0.5,0.224 -0.5,0.5c0,0.276 0.224,0.5 0.5,0.5c0.177,0 0.823,0 1,0c0.276,0 0.5,-0.224 0.5,-0.5c0,-0.276 -0.224,-0.5 -0.5,-0.5z" fill="#ffffff"></path><path d="M28.5,68c-0.177,0 -4.823,0 -5,0c-0.276,0 -0.5,0.224 -0.5,0.5c0,0.276 0.224,0.5 0.5,0.5c0.177,0 4.823,0 5,0c0.276,0 0.5,-0.224 0.5,-0.5c0,-0.276 -0.224,-0.5 -0.5,-0.5z" fill="#ffffff"></path><path d="M33.5,70c-0.177,0 -2.823,0 -3,0c-0.276,0 -0.5,0.224 -0.5,0.5c0,0.276 0.224,0.5 0.5,0.5c0.177,0 2.823,0 3,0c0.276,0 0.5,-0.224 0.5,-0.5c0,-0.276 -0.224,-0.5 -0.5,-0.5z" fill="#ffffff"></path><g fill="#ffffff"><path d="M86.5,45h-10c-0.276,0 -0.5,-0.224 -0.5,-0.5c0,-0.276 0.224,-0.5 0.5,-0.5h10c0.276,0 0.5,0.224 0.5,0.5c0,0.276 -0.224,0.5 -0.5,0.5z"></path><path d="M90.5,45h-2c-0.276,0 -0.5,-0.224 -0.5,-0.5c0,-0.276 0.224,-0.5 0.5,-0.5h2c0.276,0 0.5,0.224 0.5,0.5c0,0.276 -0.224,0.5 -0.5,0.5z"></path><path d="M95.5,47h-10c-0.276,0 -0.5,-0.224 -0.5,-0.5c0,-0.276 0.224,-0.5 0.5,-0.5h10c0.276,0 0.5,0.224 0.5,0.5c0,0.276 -0.223,0.5 -0.5,0.5z"></path><path d="M83.5,47h-1c-0.276,0 -0.5,-0.224 -0.5,-0.5c0,-0.276 0.224,-0.5 0.5,-0.5h1c0.276,0 0.5,0.224 0.5,0.5c0,0.276 -0.224,0.5 -0.5,0.5z"></path><path d="M80.47,47h-1.97c-0.276,0 -0.5,-0.224 -0.5,-0.5c0,-0.276 0.224,-0.5 0.5,-0.5h1.97c0.276,0 0.5,0.224 0.5,0.5c0,0.276 -0.224,0.5 -0.5,0.5z"></path><path d="M89.5,43h-5c-0.276,0 -0.5,-0.224 -0.5,-0.5c0,-0.276 0.224,-0.5 0.5,-0.5h5c0.276,0 0.5,0.224 0.5,0.5c0,0.276 -0.223,0.5 -0.5,0.5z"></path><path d="M86.5,49h-2c-0.276,0 -0.5,-0.224 -0.5,-0.5c0,-0.276 0.224,-0.5 0.5,-0.5h2c0.276,0 0.5,0.224 0.5,0.5c0,0.276 -0.224,0.5 -0.5,0.5z"></path></g><g fill="#472b29"><path d="M37.375,74.3c-3.681,0 -6.675,-2.994 -6.675,-6.675v-29.25c0,-3.681 2.994,-6.675 6.675,-6.675h29.25c3.681,0 6.675,2.994 6.675,6.675v29.25c0,3.681 -2.994,6.675 -6.675,6.675z"></path><path d="M66.625,32.4c3.295,0 5.975,2.68 5.975,5.975v29.25c0,3.295 -2.68,5.975 -5.975,5.975h-29.25c-3.295,0 -5.975,-2.68 -5.975,-5.975v-29.25c0,-3.295 2.68,-5.975 5.975,-5.975h29.25M66.625,31h-29.25c-4.056,0 -7.375,3.319 -7.375,7.375v29.25c0,4.056 3.319,7.375 7.375,7.375h29.25c4.056,0 7.375,-3.319 7.375,-7.375v-29.25c0,-4.056 -3.319,-7.375 -7.375,-7.375z"></path></g><g fill="#ee3e54"><path d="M68,45c0,0 -7,0 -8,-8h-6v14.024v6.976l-0.05,3c-0.252,2.247 -2.136,4 -4.45,4c-2.485,0 -4.5,-2.015 -4.5,-4.5c0,-2.485 2.015,-4.5 4.5,-4.5c0.171,0 0.334,0.032 0.5,0.05v-6.025c-0.167,-0.008 -0.331,-0.025 -0.5,-0.025c-5.799,0 -10.5,4.701 -10.5,10.5c0,5.799 4.701,10.5 10.5,10.5c5.63,0 10.212,-4.435 10.475,-10h0.025v-12.76c1.98,1.623 4.584,2.76 8,2.76c0,-2 0,-6 0,-6z"></path></g><g fill="#472b29"><path d="M60,59c-0.138,0 -0.25,-0.112 -0.25,-0.25v-8.625c0,-0.138 0.112,-0.25 0.25,-0.25c0.138,0 0.25,0.112 0.25,0.25v8.625c0,0.138 -0.112,0.25 -0.25,0.25z"></path></g><g fill="#472b29"><path d="M49.5,71.25c-0.799,0 -1.595,-0.088 -2.366,-0.261c-0.135,-0.03 -0.22,-0.164 -0.189,-0.299c0.03,-0.134 0.158,-0.221 0.299,-0.189c1.468,0.33 3.038,0.33 4.5,0.002c0.324,-0.071 0.647,-0.16 0.963,-0.265c0.398,-0.132 0.788,-0.288 1.157,-0.463c3.438,-1.624 5.683,-4.991 5.861,-8.787c0.007,-0.134 0.116,-0.238 0.25,-0.238c0.138,0 0.263,0.112 0.263,0.25c0,0.034 -0.006,0.066 -0.018,0.097c-0.216,3.946 -2.563,7.439 -6.143,9.13c-0.388,0.185 -0.796,0.348 -1.215,0.486c-0.331,0.109 -0.671,0.203 -1.011,0.278c-0.764,0.172 -1.555,0.259 -2.351,0.259z"></path></g><g fill="#472b29"><path d="M45.354,58.998c-0.032,0 -0.065,-0.006 -0.098,-0.02c-0.127,-0.054 -0.187,-0.201 -0.133,-0.328c0.746,-1.762 2.464,-2.9 4.377,-2.9c0.085,0 0.168,0.007 0.25,0.017v-5.741c0,-0.138 0.112,-0.25 0.25,-0.25c0.138,0 0.25,0.112 0.25,0.25v6.025c0,0.071 -0.03,0.139 -0.083,0.187c-0.054,0.047 -0.124,0.067 -0.194,0.062l-0.154,-0.02c-0.104,-0.014 -0.21,-0.029 -0.318,-0.029c-1.712,0 -3.249,1.019 -3.916,2.596c-0.042,0.093 -0.134,0.151 -0.231,0.151z"></path></g><g fill="#472b29"><path d="M68,51.25c-1.45,0 -2.831,-0.205 -4.106,-0.609c-0.132,-0.042 -0.205,-0.183 -0.163,-0.313c0.042,-0.132 0.187,-0.206 0.313,-0.163c1.153,0.365 2.399,0.562 3.706,0.584v-5.509c-0.66,-0.044 -2.505,-0.277 -4.288,-1.503c-0.114,-0.078 -0.143,-0.234 -0.064,-0.348c0.079,-0.113 0.235,-0.141 0.348,-0.064c2.048,1.408 4.233,1.425 4.255,1.425c0.138,0 0.25,0.112 0.25,0.25v6c-0.001,0.138 -0.113,0.25 -0.251,0.25z"></path></g><g><path d="M47.5,69.5c-6.065,0 -11,-4.935 -11,-11c0,-6.065 4.935,-11 11,-11c0.12,0 0.237,0.008 0.355,0.016l0.168,0.011c0.267,0.012 0.477,0.232 0.477,0.499v6.025c0,0.143 -0.061,0.277 -0.167,0.373c-0.092,0.082 -0.211,0.127 -0.333,0.127c-0.019,0 -0.216,-0.023 -0.216,-0.023c-0.094,-0.013 -0.187,-0.028 -0.284,-0.028c-2.206,0 -4,1.794 -4,4c0,2.206 1.794,4 4,4c2.026,0 3.726,-1.528 3.952,-3.556l0.048,-2.953v-20.991c0,-0.276 0.224,-0.5 0.5,-0.5h6c0.252,0 0.465,0.188 0.496,0.438c0.932,7.45 7.237,7.562 7.505,7.563c0.275,0.001 0.499,0.225 0.499,0.5v6c0,0.276 -0.224,0.5 -0.5,0.5c-2.828,0 -5.346,-0.758 -7.5,-2.255v11.754c0,0.064 -0.013,0.126 -0.034,0.184c-0.357,5.797 -5.143,10.316 -10.966,10.316z" fill="#ffffff"></path><path d="M58,35c1,8 8,8 8,8c0,0 0,4 0,6c-3.416,0 -6.02,-1.136 -8,-2.76v12.76h-0.025c-0.263,5.565 -4.845,10 -10.475,10c-5.799,0 -10.5,-4.701 -10.5,-10.5c0,-5.799 4.701,-10.5 10.5,-10.5c0.169,0 0.333,0.017 0.5,0.025v6.025c-0.166,-0.018 -0.329,-0.05 -0.5,-0.05c-2.485,0 -4.5,2.015 -4.5,4.5c0,2.485 2.015,4.5 4.5,4.5c2.314,0 4.198,-1.753 4.45,-4l0.05,-3v-6.976v-14.024h6M58,34h-6c-0.552,0 -1,0.448 -1,1v14.024v6.976l-0.049,2.933c-0.219,1.752 -1.694,3.067 -3.451,3.067c-1.93,0 -3.5,-1.57 -3.5,-3.5c0,-1.93 1.57,-3.5 3.5,-3.5c0.075,0 0.147,0.013 0.219,0.023l0.169,0.022c0.037,0.004 0.074,0.006 0.111,0.006c0.245,0 0.482,-0.09 0.667,-0.255c0.213,-0.19 0.334,-0.461 0.334,-0.746v-6.025c0,-0.534 -0.419,-0.974 -0.953,-0.999l-0.156,-0.01c-0.13,-0.008 -0.259,-0.016 -0.391,-0.016c-6.341,0 -11.5,5.159 -11.5,11.5c0,6.341 5.159,11.5 11.5,11.5c6.069,0 11.06,-4.695 11.461,-10.729c0.025,-0.086 0.039,-0.177 0.039,-0.271v-10.839c2.057,1.221 4.403,1.839 7,1.839c0.552,0 1,-0.448 1,-1v-6c0,-0.552 -0.448,-1 -1,-1c-0.246,-0.002 -6.134,-0.131 -7.008,-7.124c-0.062,-0.5 -0.488,-0.876 -0.992,-0.876z" fill="#472b29"></path></g><g fill="#83ccb7"><path d="M66,43.892c0,-0.54 0,-0.892 0,-0.892c0,0 -2.649,-0.007 -4.921,-1.871c1.608,1.91 3.701,2.554 4.921,2.763z"></path><path d="M44.866,62.134c0.818,1.126 2.136,1.866 3.634,1.866c2.314,0 4.198,-1.753 4.45,-4l0.05,-3v-6.976v-14.024h5.181c-0.067,-0.324 -0.136,-0.645 -0.181,-1h-6v14.024v6.976l-0.05,3c-0.252,2.247 -2.136,4 -4.45,4c-0.987,0 -1.892,-0.327 -2.634,-0.866z"></path><path d="M38,59.5c0,-5.63 4.435,-10.212 10,-10.475v-1c-0.167,-0.008 -0.331,-0.025 -0.5,-0.025c-5.799,0 -10.5,4.701 -10.5,10.5c0,3.154 1.398,5.976 3.599,7.901c-1.614,-1.846 -2.599,-4.256 -2.599,-6.901z"></path></g><g fill="#472b29"><path d="M53,48.25c-0.138,0 -0.25,-0.112 -0.25,-0.25v-12c0,-0.138 0.112,-0.25 0.25,-0.25h5.181c0.138,0 0.25,0.112 0.25,0.25c0,0.138 -0.112,0.25 -0.25,0.25h-4.931v11.75c0,0.138 -0.112,0.25 -0.25,0.25z"></path><path d="M53,57.25c-0.138,0 -0.25,-0.112 -0.25,-0.25v-6.976c0,-0.138 0.112,-0.25 0.25,-0.25c0.138,0 0.25,0.112 0.25,0.25v6.976c0,0.138 -0.112,0.25 -0.25,0.25z"></path><path d="M48.5,64.25c-0.138,0 -0.25,-0.112 -0.25,-0.25c0,-0.138 0.112,-0.25 0.25,-0.25c2.154,0 3.96,-1.624 4.201,-3.777l0.022,-1.436c0.002,-0.137 0.114,-0.246 0.25,-0.246c0.001,0 0.003,0 0.004,0c0.139,0.002 0.248,0.116 0.246,0.254l-0.024,1.459c-0.27,2.431 -2.29,4.246 -4.699,4.246z"></path><path d="M44.367,50.107c-0.097,0 -0.189,-0.057 -0.229,-0.151c-0.055,-0.127 0.004,-0.274 0.131,-0.328c1.181,-0.505 2.432,-0.792 3.72,-0.853c0.138,0 0.254,0.101 0.262,0.238c0.006,0.138 -0.101,0.255 -0.238,0.262c-1.228,0.058 -2.421,0.331 -3.546,0.812c-0.033,0.014 -0.067,0.02 -0.1,0.02z"></path><path d="M38,59.75c-0.138,0 -0.25,-0.112 -0.25,-0.25c0,-3.713 1.881,-7.112 5.03,-9.093c0.115,-0.07 0.271,-0.039 0.345,0.079c0.073,0.116 0.038,0.271 -0.079,0.345c-3.003,1.888 -4.796,5.129 -4.796,8.669c0,0.138 -0.112,0.25 -0.25,0.25z"></path></g><g><path d="M81.5,69.5c0,0 1.567,0 3.5,0c1.933,0 3.5,-1.567 3.5,-3.5c0,-1.781 -1.335,-3.234 -3.055,-3.455c0.028,-0.179 0.055,-0.358 0.055,-0.545c0,-1.933 -1.567,-3.5 -3.5,-3.5c-1.032,0 -1.95,0.455 -2.59,1.165c-0.384,-1.808 -1.987,-3.165 -3.91,-3.165c-2.209,0 -4,1.791 -4,4c0,0.191 0.03,0.374 0.056,0.558c-0.428,-0.344 -0.964,-0.558 -1.556,-0.558c-1.228,0 -2.245,0.887 -2.455,2.055c-0.179,-0.028 -0.358,-0.055 -0.545,-0.055c-1.933,0 -3.5,1.567 -3.5,3.5c0,1.933 1.567,3.5 3.5,3.5c1.933,0 7.5,0 7.5,0v0.5h7z" fill="#fdfcef"></path><path d="M83.25,65c-0.138,0 -0.25,-0.112 -0.25,-0.25c0,-1.223 0.995,-2.218 2.218,-2.218c0.034,0.009 0.737,-0.001 1.244,0.136c0.133,0.036 0.212,0.173 0.176,0.306c-0.036,0.134 -0.173,0.213 -0.306,0.176c-0.444,-0.12 -1.1,-0.12 -1.113,-0.118c-0.948,0 -1.719,0.771 -1.719,1.718c0,0.138 -0.112,0.25 -0.25,0.25z" fill="#472b29"></path><circle cx="76.5" cy="69.5" r="0.5" fill="#472b29"></circle><path d="M85,70h-3.5c-0.276,0 -0.5,-0.224 -0.5,-0.5c0,-0.276 0.224,-0.5 0.5,-0.5h3.5c1.654,0 3,-1.346 3,-3c0,-1.496 -1.125,-2.768 -2.618,-2.959c-0.134,-0.018 -0.255,-0.088 -0.336,-0.196c-0.081,-0.108 -0.115,-0.244 -0.094,-0.377c0.023,-0.154 0.048,-0.308 0.048,-0.468c0,-1.654 -1.346,-3 -3,-3c-0.85,0 -1.638,0.355 -2.219,1c-0.125,0.139 -0.321,0.198 -0.5,0.148c-0.182,-0.049 -0.321,-0.195 -0.36,-0.379c-0.341,-1.604 -1.78,-2.769 -3.421,-2.769c-1.93,0 -3.5,1.57 -3.5,3.5c0,0.143 0.021,0.28 0.041,0.418c0.029,0.203 -0.063,0.438 -0.242,0.54c-0.179,0.102 -0.396,0.118 -0.556,-0.01c-0.365,-0.293 -0.794,-0.448 -1.243,-0.448c-0.966,0 -1.792,0.691 -1.963,1.644c-0.048,0.267 -0.296,0.446 -0.569,0.405c-0.154,-0.024 -0.308,-0.049 -0.468,-0.049c-1.654,0 -3,1.346 -3,3c0,1.654 1.346,3 3,3h7.5c0.276,0 0.5,0.224 0.5,0.5c0,0.276 -0.224,0.5 -0.5,0.5h-7.5c-2.206,0 -4,-1.794 -4,-4c0,-2.206 1.794,-4 4,-4c0.059,0 0.116,0.002 0.174,0.006c0.414,-1.186 1.537,-2.006 2.826,-2.006c0.349,0 0.689,0.061 1.011,0.18c0.165,-2.333 2.115,-4.18 4.489,-4.18c1.831,0 3.466,1.127 4.153,2.774c0.68,-0.498 1.502,-0.774 2.347,-0.774c2.206,0 4,1.794 4,4c0,0.048 -0.001,0.095 -0.004,0.142c1.743,0.448 3.004,2.027 3.004,3.858c0,2.206 -1.794,4 -4,4z" fill="#472b29"></path><path d="M79.5,69c-0.159,0 -0.841,0 -1,0c-0.276,0 -0.5,0.224 -0.5,0.5c0,0.276 0.224,0.5 0.5,0.5c0.159,0 0.841,0 1,0c0.276,0 0.5,-0.224 0.5,-0.5c0,-0.276 -0.224,-0.5 -0.5,-0.5z" fill="#472b29"></path></g></g></g></svg>